<?xml version="1.0" encoding="utf-8"?>
<svg version="1.1" id="Lower_Saxony" xmlns="http://www.w3.org/2000/svg" xmlns:xlink="http://www.w3.org/1999/xlink" x="0px"
	 y="0px" width="1422.229px" height="1202.191px" viewBox="0 0 1422.229 1202.191" fill="none"
	 xml:space="preserve">
<rect id="Germany" x="0" y="0" width="1422.229" height="1202.191"/>
<path id="Lower_Saxony_1_" fill="#FEFEE9" d="M537.503,332.442l-2.888,0.997l0.409,1.622l1.786,4.056l3.429,5.487l1.491,1.55
	l1.789,1.192l3.28,1.431l4.845,1.313l4.919,2.741l4.846,1.432l5.367,0.714l3.131,1.432l1.118,1.91l0.298,1.192l0.448,2.385
	l0.521,5.13l0.072,1.788l0.521,2.863l2.029,4.985l1.695,3.361l2.016,3.22l1.64,2.028l4.473,4.056l2.535,1.788l2.833,1.314
	l1.043,0.953l0.298,1.191l0.074,3.341l-0.298,1.667l-0.298,5.605l0.146,1.792l-0.298,1.31l9.807,4.905l4.25-1.75l3.762-5.54
	l0.447-0.478h1.189l2.46,1.432l2.461,2.624l8.423,5.009l4.249,1.671l2.906,0.718l1.938-0.122l1.19-0.714l1.118-3.221v-1.789
	l-0.373-1.553l0.227-0.475h0.444l2.236,1.549l1.342,1.549l1.789,2.98l1.491,1.671l1.269,0.597l0.896,0.835l1.863,0.717l3.459,3.042
	l2.234-1.074l11.747-14.014l0.447-0.835v-0.714l-1.864-6.083l-0.148-0.953l0.148-1.432l0.447-0.953l2.607-2.506l2.534-3.339
	l0.745-1.553l-0.074-1.071l-0.671-1.195l-1.342-1.429l-3.951-2.623l-1.64-1.91l-1.641-2.506v-1.071l0.896-1.554l1.864-1.191
	l2.684-2.503l-0.074-0.718l-4.396-5.248l-5.095-3.778l-1.043-0.36l-0.896,0.479l-0.745,1.313l-4.073,5.092l-0.896,1.55l-2.535,0.835
	l-2.233-0.118l-6.41-2.388l-3.432-1.906l-1.563-1.192l-1.27-1.553l-6.635-6.44l-1.715-0.714l-7.677,0.714l-1.79-0.117l-1.49-0.597
	l-1.938-1.671l-0.971-0.356h-1.714l-2.533-0.835l-0.373-0.715v-0.596l0.522-1.196l0.074-1.191l-0.746-1.071l-1.938-1.074
	l-6.038-1.549l-1.117,0.357l-2.235,1.549l-0.746,0.356l-3.429,0.36l-3.205-0.239l-1.193-0.238l-6.188-2.624l-6.484-3.459
	l-1.118-0.239l-0.818,0.239l-4.157,4.348l-2.236-0.835l-1.341-1.314l1.251-3.869l0.298-0.953v-1.192l-1.044-1.789l-0.521-0.239
	l-1.716,0.121l-3.727,1.907l-2.386,0.357l-0.819-0.236l-8.423-6.083l-1.043-0.36l-2.461-0.235l-1.642,0.235l-1.058,0.401
	L537.503,332.442z M546.875,168.962l-2.301,0.353L546.875,168.962z M880.086,195.56l-0.279,5.535l1.582,5.892l-3.163,1.318
	l0.791,6.154l3.426,0.527l1.318,4.837l3.783,0.791l0.791,10.372l4.571,2.899l10.372,14.418l2.108-1.055l-1.582-3.953l5.628-2.201
	l4.217-4.744l4.312,4.217l0.791,5.364l-2.992,6.682l3.256,1.845l7.473-3.689l-0.264-3.783l8.791,4.573l10.106-5.628l-0.791-3.783
	l4.839-2.109l3.952,0.263l-2.106-8.79l2.372-2.372l1.229-1.928l3.764,2.378l0.277,0.208l4.465,3.887l2.936,2.922l0.35,0.45
	l2.692,4.54l0.932,1.229l1.172,0.721c2.357,0.331,3.137,0.333,3.853,0.542c0.611,0.18,1.18,0.51,2.652,1.325l0.591,0.471
	c1.944,2.174,1.545,2.445,3.119,6.314l0.312,0.391l3.02,2.467l2.291,1.283h2.021c4.149-1.371,3.308-0.647,9.719-0.015l2.055-0.273
	l1.246-0.615l0.748-0.776l0.617-3.271l0.104-0.375l0.448-1.192l0.354-0.624l1.342-1.671l0.506-0.464l3.568-2.393l0.475-0.243
	l5.452-2.021l0.352-0.099l4.845-0.956l0.656-0.033c2.854,0.272,2.414,0.511,6.069,2.208l9.936,0.53l0.585,0.109
	c2.31,0.756,3.125,0.956,3.818,1.362c0.744,0.434,1.354,1.103,3.512,2.943l5.218,3.762l0.44,0.419l0.427,0.529l1.523,0.938
	l10.316,5.271l5.628,3.715l4.784,2.671l4.268,1.637l3.413,0.873c4.539,0.369,5.928,0.192,7.155,0.552
	c1.037,0.305,1.963,0.99,4.575,2.707l0.385,0.124l1.792-0.262l4.479-1.271c6.226-2.025,9.303-3.322,15.646-1.208
	c3.721,1.24,6.937-1.125,10.947-0.258c4.085,0.883,8.937,5.188,10.67,8.89l0.121,0.271c2.009,1.549,2.315,2.327,2.255,3.92
	l-0.822,0.051l7.188,0.5l1.403,0.75l-1.562,3.25l2.344,0.75l1.563,1.75l3.75,3l2.344,1.5l4.844,1.25l3.594,0.5l0.156,1.5l1.875,1.75
	l1.094-1.75l2.656-0.25l0.781-2.5l1.406-0.5l2.5,0.25l1.094-2l-0.938-3l2.031,1l1.406,2l2.031-2.5l-1.722-2v-2.25h3.281l2.031,0.25
	l2.656-1.5l1.562-3.75l2.656,0.25l1.719,3.25l5.313,2.5l1.719-2l7.344,2.25l-1.406,3l2.188,1l1.562,2.5l1.875,3.75l-0.469,2.25
	l1.094,1l0.313,2.25l-0.938,2l1.563,1.75l0.156,3.251l2.188,1h2.5l1.25,2.25l2.188,5.75l1.875,2.25l2.969,4.75l2.344,5.75l1.719,1
	l1.097,2l3.438,3.5l1.25,2l7.188,4l2.344,0.5l2.5,0.25l1.719,1.75l-1.406,2.25l2.813,1l2.969,2.25l5.469-0.5l2.656,2l1.25,1.75
	l-1.406,3l-0.312,2.75l-1.406,2.25l-2.027,1.313l0.141,0.532c0.187,1.146,0.333,3.545,1,4.521c1.804-1.128,3.646-2.521,5.208-4.013
	c2.122-2.027,6.146-0.419,7.698,1.626c1.274,1.685,9.578,9.067,10.099,10.019c1.483,2.714,0.464,5.159,1.609,7.706
	c0.713,1.586,1.373,3.342,2.513,4.658c0.241,0.189,0.66,0.468,0.979,0.714l0.881,0.682c4.279,1.018,6.896,4.779,8.797,8.392
	c1.994,3.796,6.293,4.783,9.728,1.677c6.11-5.526,10.354-5.844,18.543-6.821c6.229-0.744,10.953,0.892,13.885,6.555
	c0.98,1.895,4.452,5.789,6.573,5.789c0.487,0,1.003,0.094,1.488,0.024c6.83-2.357,8.389-5.016,12.913,2.174
	c0.482,0.771,0.961,1.592,1.573,2.273c0.553,0.356,1.25,0.705,1.977,0.963l-0.136,2.338c0.146,0.043,0.271,0.098,0.423,0.127
	c0.095,1.193-0.438,4.38-0.993,5.461c-0.256,0.497-1.062,1.196-1.565,1.432c-0.159,0.88-0.625,1.386-0.969,2.146
	c-0.583,1.291-1.287,4.437-2.606,5.13c-0.604,0.015-1.521-0.461-1.863-0.954c-1.333-0.023-2.485,0.605-3.803,0.599
	c-0.563-0.39-1.23-0.835-1.716-1.313c-0.146-0.146-0.551-0.744-0.671-0.835c-0.189-0.146-1.92-0.834-2.233-0.953
	c-0.659,0.126-1.578,0.508-2.087,0.953l-0.673,0.835c-0.307,0.562-0.407,1.133-0.771,1.71c-0.077,0.124-0.149,0.18-0.199,0.317
	c-0.14,0.388-0.115,0.904-0.224,1.312c-0.313,1.17-0.938,2.284-1.27,3.459c-0.507,1.805-0.529,3.764-0.817,5.607
	c-0.14,0.88-0.459,1.744-0.599,2.624c-0.271,1.732-0.154,3.852,0,5.604c0.109,1.229,0.5,3.471,1.119,4.53
	c0.374,0.641,0.952,0.863,1.043,1.789c0.011,0.089-0.131,1.047-0.146,1.195c-2.142,0.538-3.405,0.057-5.367,0.234
	c-0.819,0.075-1.646,0.359-2.46,0.479c-0.369,0.055-0.923,0.009-1.267,0.118c-0.034,0.011-2.77,1.459-2.907,1.553
	c-1.432,0.954-7.565,6.738-8.423,8.11c-0.205,0.326-0.312,0.751-0.521,1.069c-0.198,0.301-0.537,0.54-0.746,0.835
	c-0.204,0.289-0.322,0.658-0.521,0.953c-0.51,0.767-1.543,1.64-2.313,2.148c-2.073,1.384-4.778,1.214-7.081,1.789
	c-0.994,0.249-2.002,0.639-2.979,0.955c-2.46,0.792-4.662,2.605-7.082,3.574c-0.716,0.287-1.536,0.405-2.236,0.719
	c-0.253,0.111-0.489,0.377-0.745,0.475c-1.188,0.456-3.21,0.737-4.473,1.313c-0.977,0.445-2.225,1.186-3.205,1.71
	c-0.962,0.514-1.973,0.895-3.057,0.438c-0.769-0.733-1.313-1.686-1.789-2.624c-0.629-0.333-1.779-0.437-2.46-0.236
	c-2.101,1.524-2.39,4.399-5.218,5.366c-0.803,0.049-1.561-0.146-2.286-0.438c-0.173-0.068-1.345-0.563-1.441-0.64
	c-1.716-1.313-0.926-3.752-2.608-4.649c-1.412-0.754-3.364-0.504-4.619-1.667c-0.148-0.877-1.104-2.27-1.938-2.624
	c-1.093-0.466-6.917-0.706-8.573-1.074c-0.384-0.085-0.812-0.346-1.189-0.478c-1.532-0.537-3.053-1.272-4.622-1.667
	c-0.627,0.069-1.558,0.56-1.938,1.069c-0.947,0.194-1.812,0-2.758,0c-0.819,0-1.792,0.124-2.608,0.238
	c-1.22,0.173-2.257,0.719-3.43,0.954c-0.413,0.083-0.853,0.038-1.267,0.121c-0.375,0.075-0.744,0.285-1.119,0.355
	c-1.188,0.229-2.77,0.103-3.729-0.717l-0.521-0.953c-0.182-1.229,0.771-2.23,0.895-3.459c-0.254-0.312-1.074-1.144-1.416-1.311
	c-1.354-0.666-3.523-0.677-4.92-0.122c-0.332,0.132-0.643,0.44-0.97,0.597c-0.675,0.32-1.295,0.393-1.864,0.957l-1.416,0.117
	c-1.998-1.012-4.109-3.195-6.56-1.789c-0.569,0.327-1.173,1.017-1.714,1.434c-0.848,0.091-1.766,0.238-2.609,0.238
	c-0.906,0-2.015-0.301-2.906-0.121c-2.803,0.562-4.023,5.65-4.023,7.993c0,1.231,0.333,2.673-0.299,3.815
	c-0.607,1.104-2.405,1.82-3.43,2.503c-0.852,0.564-1.732,1.31-2.461,2.026c-0.828,0.82-1.308,1.68-1.938,2.624
	c-0.789,1.184-1.854,2.246-2.609,3.459c-0.189,0.309-0.302,0.801-0.521,1.074c-0.083,0.104-0.167,0.12-0.273,0.198
	c-0.436,0.317-0.923,0.866-1.366,1.111l-1.116,0.359c-0.75,0.067-1.77-0.143-2.535-0.199c-2.476-0.188-5.215-0.488-7.679-0.16
	c-1.44,0.548-1.53,3.566-3.949,3.221c-0.561-0.377-1.567-0.636-2.237-0.597l-0.896-0.715c0.035-0.643-0.254-1.647-0.672-2.146
	c-0.916-0.716-3.563-0.104-4.621,0.236c-1.857,0.596-2.906,1.828-3.876,2.147c-0.849,0.278-2.822-0.006-3.752-0.081
	c-0.667-0.055-1.257,0.081-1.912,0.081c-1.894,0-5.363-0.845-7.009,0c-0.271,0.404-1.077,1.32-1.489,1.55l-1.118,0.355
	c-0.462,0.042-1.021-0.118-1.491-0.118c-1.833,0-6.038,0.813-6.038,3.182c0,1.132,0.409,1.896,1.269,2.665
	c0.131,1.532-0.129,3.427-1.564,4.294l-0.298,1.312c0.744,2.146,1.274,3.409,1.341,5.728c0.013,0.396,0.121,0.926,0.075,1.311
	c-0.044,0.367-0.275,0.827-0.373,1.191c-0.479,1.783-1.169,4.68-0.521,6.438c0.228,0.612,0.838,1.139,1.192,1.671
	c0.206,0.312,1.488,2.447,1.64,2.745c1.062,2.085,0.138,3.917,1.938,6.162c0.087,0.107,0.113,0.193,0.224,0.277
	c0.096,0.072,0.879,0.391,1.043,0.476c1.289,0.662,2.779,1.236,3.43,2.624c1.535,3.277-0.495,5.297-0.148,7.515
	c0.042,0.27,2.297,7.072,2.46,7.396c1.789,0.569,3.46-0.161,5.218-0.236c0.881-0.038,3.164,0.288,3.876,0.832
	c0.066,0.052,0.577,0.726,0.671,0.835c0.212,0.25,0.584,0.563,0.745,0.835c0.466,0.796,0.404,3.096,0.82,4.413
	c0.796,1.223,1.901,2.511,2.532,3.938c0.149,0.34,0.216,0.737,0.373,1.07c0.161,0.337,0.438,0.619,0.599,0.956
	c0.317,0.669,0.366,1.496,0.671,2.146c0.131,0.279,0.428,0.564,0.596,0.835c0.4,0.64,0.69,1.207,1.192,1.789
	c0.642,0.741,1.621,1.53,2.087,2.385c0.172,0.313,0.219,0.746,0.373,1.074c0.139,0.295,0.383,0.541,0.521,0.835
	c0.767,1.634,0.59,4.438,1.343,5.723c0.856,1.465,2.774,1.269,3.801,2.389c0.021,0.022,1.491,2.69,1.566,2.859
	c0.817,1.859,0.51,4.004,1.341,5.845c0.661,0.196,3.135,1.956,3.578,2.507c1.162,1.443,1.344,3.825,3.802,3.697
	c1.537-0.624,2.411-2.771,3.802-3.697c0.286-0.189,0.666-0.312,0.97-0.479c1.618-0.896,1.495-0.954,3.431-0.954
	c0.874,0,1.717-0.028,2.532,0.357c0.451,0.529,0.881,1.092,1.269,1.67c0.272,3.358-1.224,4.941-3.354,7.158
	c-0.769,0.798-1.443,1.717-2.234,2.502c-1.075,1.064-2.048,1.9-2.685,3.341c-0.855,1.942-0.386,4.352-0.521,6.438
	c-0.132,2.006-0.603,4.075-0.372,6.083c0.294,2.589,2.312,6.938,4.248,8.704c0.254,0.23,0.643,0.364,0.896,0.598
	c0.805,0.732,1.23,1.791,1.863,2.623c0.198,0.264,0.546,0.455,0.744,0.719c0.36,0.475,0.578,1.021,0.97,1.51
	c0.691,0.862,1.788,1.707,2.312,2.664c0.69,1.267,0.801,2.797,1.64,4.056c1.024,1.535,3.273,3.721,2.981,5.728l-0.819,0.714
	c-3.127-0.104-4.129-1.229-6.41-1.55c-2.578-0.363-6.675,1.49-7.604,4.056c-0.446,1.229-0.096,2.451-0.448,3.695
	c-0.862,0.631-1.659,1.578-1.938,2.624l0.225,1.194c-0.331,1.828-0.252,5.403,0.148,7.256l0.279,1.266l1.988,1.313l1.948,1.633
	c1.533,3.987,0.829,3.969,3.559,5.83l2.676,1.822l1.416,1.938c2.914,3.989,2.038,3.959,5.28,5.447
	c1.384,1.876,2.229,4.835,4.503,5.353l5.729,1.306c3.814,4.596,2.707,4.941,7.126,5.694l1.271,1.02l-0.034,0.607l-1.318,0.756
	c-2.036,1.167-2.659,7.098-0.206,9.104c0,0-0.485,0.618-0.969,0.816c-1.102,0.455-2.286,0.657-3.431,0.952
	c-0.354,0.093-0.76,0.308-1.118,0.357c-0.854,0.124-1.812-0.08-2.684,0c-0.426,0.039-0.841,0.2-1.268,0.239
	c-0.443,0.041-0.898-0.042-1.345,0c-1.186,0.109-2.287,0.663-3.429,0.956c-1.198,0.31-4.196,0.959-4.696,2.265
	c1.928,1.68,0.515,3.936,1.192,5.844c1.004,0.822,2.229,0.817,3.354,1.313c1.255,0.554,2.685,1.674,2.905,3.102
	c0.131,0.84-0.024,1.636,0.226,2.503c1.035,0.401,1.996,1.039,2.904,1.67c0,0.17,0.021,1.465,0,1.549
	c-0.185,0.89-2.021,2.704-2.833,3.104c-0.338,0.166-0.774,0.193-1.115,0.354c-0.643,0.306-1.184,0.791-1.863,1.074
	c-0.418,0.498-0.706,1.505-0.671,2.146c0.884,1.607,1.818,3.017,2.833,4.531c0.478,0.719,1.019,2.175,1.563,2.741
	c0.046,0.048,0.86,0.53,0.971,0.599c0.797-0.23,1.783-0.315,2.607-0.239l0.522,0.835c-0.152,1.287-0.359,2.902-0.075,4.173
	c1.691-0.211,3.514-1.931,5.292-1.071c0.067,1.265-0.866,2.202-0.969,3.459c-0.061,0.711-0.036,2.037,0.071,2.742
	c0.117,0.75,0.506,1.465,0.599,2.27l1.043,0.236c0.896-0.88,1.057-1.918,1.563-2.981c0.311-0.646,0.839-1.331,1.27-1.906l1.19-0.121
	c1.518,2.297,0.886,4.484,1.021,7.037c0.05,0.952,0.179,2.167,0.099,3.101c-0.098,1.146-0.931,3.553-1.863,4.295
	c-0.827,0.662-2.141,0.938-3.131,1.191c-0.354,0.092-0.761,0.305-1.117,0.357c-0.426,0.062-0.909-0.041-1.343,0
	c-0.724,0.065-2.784,0.596-3.503,0.835c-0.771,0.256-1.159,0.771-1.789,1.189c-0.276,0.188-0.715,0.274-0.97,0.479
	c-1.692,1.354-1.588,3.412-2.534,5.126c-0.461,0.836-1.4,1.744-2.013,2.506c-0.326,1.515,0.464,2.746,1.043,4.055
	c0.407,0.923,0.771,2.062,1.417,2.863c0.781,0.973,2.791,2.146,4.022,2.146c1.727,0,2.929-1.327,4.848-0.835
	c0.487,0.26,1.29,1.122,1.416,1.672c0.376,1.636-0.455,5.806-1.118,7.395c-0.339,0.812-0.994,1.379-1.367,2.146
	c-1.083,2.229-2.887,5.442-4.671,7.156c-1.019,0.979-2.349,1.716-3.429,2.624c-0.767,0.644-1.702,1.317-2.387,2.028
	c-0.226,0.231-0.427,0.639-0.672,0.835c-0.255,0.205-0.688,0.293-0.969,0.479c-0.285,0.188-0.527,0.548-0.82,0.716
	c-0.39,0.225-0.939,0.307-1.364,0.517c-0.853,0.42-1.644,1.033-2.511,1.395c-1.744,0.726-3.584,1.403-5.44,1.788
	c-1.646,0.342-5.476,0.632-6.485,2.146c-0.554,0.832-0.494,2.729,0,3.577c1.01,1.729,4.688,2.845,5.74,4.648
	c1.061,1.817,0.839,5.726,0.146,7.636c-0.334,0.925-1.924,2.725-2.832,3.102c-1.009,0.418-4.229,0.254-5.365,0.118l-0.307,0.308
	c-2.093-0.552-4.494-0.308-6.629-0.308c-1.021,0-1.878-0.392-2.832-0.477c-0.416-0.035-0.917,0.117-1.342,0.117
	c-1.445,0-2.652-0.252-4.101,0.121c-1.375,0.355-3.013,0.888-4.323,1.434c-1.686,0.697-3.292,1.994-5.145,2.265
	c-0.426,0.062-0.91-0.041-1.343,0c-0.399,0.038-0.791,0.201-1.19,0.239c-1.857,0.175-7.919,0.112-9.767-0.118
	c-1.274-0.161-2.431-0.783-3.65-0.957c-1.396-0.198-2.244,0.392-3.503,0.717c-1.137,0.293-2.632,0.479-3.803,0.479
	c-2.369,0-5.195-1.227-7.827-1.433c-0.509-0.04-1.058-0.121-1.562-0.121c-1.234,0-2.491,0.365-3.729,0.479
	c-1.649,0.148-3.529,0.142-5.143,0.475c-0.777,0.161-1.499,0.523-2.312,0.601c-0.432,0.041-0.916-0.062-1.343,0
	c-0.354,0.054-0.762,0.267-1.118,0.356c-0.779,0.202-1.604,0.273-2.385,0.476c-1.454,0.375-2.763,1.01-4.101,1.67
	c-0.736,1.222-0.052,2.27,0.225,3.459c0.188,0.81,0.185,1.809,0.074,2.625c-0.137,0.043-1.047,0.314-1.118,0.355
	c-0.977,0.563-2.464,3.281-3.28,4.294c-0.428,0.532-0.928,0.996-1.342,1.549c-0.374,0.5-0.87,1.412-1.341,1.789
	c-0.384,0.309-1.112,0.558-1.565,0.798c-0.114,0.062-0.171,0.125-0.298,0.159c-0.919,0.245-3.271,0.107-4.249,0
	c-0.704-0.78-1.161-1.725-1.862-2.506c-0.587,0.146-1.375,0.771-1.642,1.313c-0.706,0.36-1.754,0.497-2.534,0.476
	c-0.537-0.415-1.402-0.788-2.087-0.835c-0.184,0.396-0.975,1.753-1.044,2.027c-0.876,3.505,4.279,6.777,5.146,9.543
	c0.109,0.354,0.062,0.819,0.147,1.189c0.209,0.911,0.524,1.503,0.298,2.507l0.82,0.714c0.796-0.229,1.785-0.313,2.608-0.237
	c0.018,0.728,0.211,1.604,0.521,2.267c1.321,0.308,2.774,0.173,4.024,0.718c0.251,0.866,0.093,1.662,0.225,2.502
	c0.255,1.635,1.673,2.602,3.279,2.506c0.771-0.702,1.611-1.324,2.387-2.025l1.043,0.475c0.21,0.734,0.154,1.784-0.075,2.507
	c-0.231,0.204-0.559,0.563-0.818,0.714c-0.898,0.521-2.225,0.669-3.205,1.075c-1.703,0.708-5.045,3.116-5.366,5.009
	c0.479,0.526,0.925,1.164,1.268,1.789c0.178,1.184-0.576,3.516-0.744,4.893c0.689,2.242,3.867,1.924,5.591,3.577
	c1.688,1.622,1.438,4.501,2.014,6.561c0.086,0.312,0.313,0.646,0.373,0.954c0.133,0.713,0.213,3.306,0.147,4.056
	c-0.202,2.378-1.701,2.186-2.387,3.697c-0.475,1.053-0.41,2.486-1.19,3.459c-1.208,1.505-4.447,0.542-5.366,3.339
	c-0.254,0.772-0.309,1.81-0.447,2.623c-2.013,2.291-6.984,0.989-7.604,4.611c-0.191,1.13,0.106,1.942,0.746,2.903
	c0.707,0.235,1.666,0.839,1.912,1.551c0.965,2.782-1.931,3.037-2.657,5.368c-0.429,1.365-0.059,1.288,0.147,2.385
	c0.485,2.583-0.984,4.884-0.818,6.68c0.436,0.654,0.572,1.342,0.896,2.027c0.302,0.642,0.777,1.162,0.896,1.907
	c0.113,0.734,0.115,1.994,0.074,2.744c-0.068,1.281-0.553,2.454,0.148,3.693c2.312,1.329,3.188,3.583,4.993,5.369
	c1.358,1.346,3.13,1.752,4.474,2.981c0.393,0.355,1.629,2.141,1.789,2.624c0.32,0.971,0.214,2.464,0.271,3.498
	c0.207,3.631,2.27,3.903,4.498,6.161c0.197,1.264-0.688,2.359-0.148,3.577c0.466,1.058,3.75,2.852,4.695,4.179
	c1.285,1.8,1.854,3.955,2.686,5.962c0.104,1.833-1.895,2.46-1.79,4.294c2.354,4.291,0.97,3.146,1.192,7.273
	c0.062,1.167,0.562,2.406,0.746,3.576c0.488,0.481,0.863,1.077,1.341,1.55c0.5,0.495,1.144,0.843,1.563,1.434
	c0.874,1.221,1.021,2.819,1.565,4.173c0.316,0.784,0.847,1.05,1.268,1.671c0.454,0.668,0.83,1.485,1.228,2.195l-0.184-0.285
	c-0.864,0.742-2.748,0.479-3.802,0.356l-0.819,0.835l-0.074,1.55l-0.671,0.835c-0.961,0.262-3.163,1.174-4.024,1.67
	c-0.9,0.521-1.786,1.146-2.758,1.55c-0.354,0.146-0.776,0.195-1.119,0.357c-0.124,0.058-1.653,1.115-1.715,1.189
	c-0.054,0.067-0.457,0.942-0.521,1.074c0.237,1.018,0.825,2.046,1.714,2.624l-0.373,0.835c-0.555,0.333-1.614,0.438-2.229,0.266
	l-2.019,1.166c-0.268,1.846,1.104,2.598,1.938,3.937c0.392,0.626,0.584,1.365,0.896,2.026c0.556,1.184,1.627,2.397,2.534,3.341
	c0.952,0.989,1.649,1.128,2.683,1.788c3.608,2.311,0.739,5.298-1.043,7.517c-0.41,0.262-1.078,0.354-1.541,0.315l-0.993-0.08
	c-1.391-0.338-3.526-3.194-4.474-4.373c-0.253-0.314-0.591-0.866-0.896-1.109c-0.242-0.194-0.688-0.318-0.97-0.479
	c-1.766-1.019-2.271-1.703-4.547-1.671c-2.02,0.792-2.451,2.388-3.43,4.057c-0.337,0.577-0.832,1.161-1.268,1.671
	c-0.672,0.207-1.543,0.396-2.162,0.714c-0.596,0.305-1.103,0.89-1.714,1.19c-0.312,0.153-0.747,0.188-1.044,0.359
	c-0.613,0.354-1,0.896-1.715,1.192c-1.829,0.759-3.511,0.034-5.367,0.118c-2.627,0.116-4.619,1.482-7.453,0.236
	c-0.424-0.731-1.068-0.889-1.564-1.432c-0.438-0.479-0.653-1.364-1.044-1.91c-0.428-0.6-1.493-1.886-2.012-2.385
	c-0.278-0.268-8.265-4.96-8.498-5.009c-0.827-0.171-1.95-0.017-2.833-0.117c-0.718-0.747-1.543-1.532-1.938-2.506
	c-0.603-0.429-1.585-0.682-2.312-0.716c-0.767-0.729-1.646-1.343-2.534-1.909c-1.031-0.134-1.319,0.354-2.087,0.718
	c-0.341,0.162-0.767,0.212-1.118,0.355c-1.645,0.681-3.063,1.817-4.771,2.386c-2.765,0.918-3.597-1.302-5.813-1.313l-0.819,0.719
	c-1.4,2.772,1.6,3.309,1.343,6.321c-0.112,1.329-0.745,3.636-1.268,4.888c-0.14,0.334-0.384,0.623-0.521,0.957
	c-0.314,0.76-0.431,1.625-0.746,2.387c-0.379,0.908-0.768,1.587-0.994,2.582c-0.227,0.994-0.062,2.498-0.795,3.261
	c-0.073,0.076-0.826,0.497-0.97,0.596c-0.771,0.536-1.719,1.367-2.235,2.146c-1.646,0.692-4.143,0.566-4.324,2.979l0.82,0.602
	l0.074,1.069c-0.93,0.388-1.682,1.075-2.608,1.433c-1.104,0.423-2.304,0.595-3.354,0.953c-0.845,0.289-3.768,2.38-4.248,3.104
	c-0.063,0.092-0.698,2.071-0.745,2.268c-0.364,1.53-0.16,4.155-0.819,5.365l-0.97,0.598c-0.83-0.078-1.729,0.023-2.534,0.238
	c-1.312,0.352-6.354,1.982-7.454,2.506c-0.696,0.332-2.154,1.189-2.608,1.789c-0.654,0.863-1.009,2.399-1.117,3.459
	c-1.209,0.815-4.839,1.021-6.188,0.598c-0.109-0.201-1.03-1.854-1.044-1.908c-0.191-0.834,0.264-1.407-0.521-2.27
	c-0.804-0.88-3.812-1.203-4.847-0.714c-0.433,0.204-3.146,3.539-3.43,4.057c-0.33,0.604-0.495,1.587-0.446,2.268
	c0.449,0.821,1.263,1.882,1.117,2.858c-1.997,0.717-1.925,4.354-3.205,5.606c-2.345,2.295-5.396,0.204-6.934,1.549
	c-0.799,1.888,1.295,3.543,1.117,5.729l-0.521,0.952l-1.043-0.238c-0.719-0.892-1.634-1.67-2.833-1.67
	c-1.873,0-3.854,1.705-5.74,1.432c-1.671-0.243-4.541-2.779-6.709-1.671c-1.923,0.983-1.283,3.821-2.235,5.248
	c-0.235,0.354-1.3,1.033-1.714,1.194l-1.191-0.359c-1.485-2.896-1.727-1.616-2.906-2.979c-0.904-1.046-1.062-2.806-2.087-3.697
	c-0.66-0.17-1.934-0.146-2.535,0.238c-0.442,1.267,0.116,2.517,0,3.814l-0.597,0.956c-1.243,0.712-2.975,1.176-4.396,1.312
	c-0.877,0.083-1.659-0.032-2.534,0.237l-0.671,0.835c0.398,3.043-2.346,3.387-4.175,4.771c-0.166,0.768-0.286,1.598-0.298,2.385
	c-0.811,1.955-4.181,1.921-5.813,2.863c-0.29,0.167-0.54,0.521-0.819,0.717c-0.84,0.584-2.155,0.799-2.906,1.428
	c-0.104,0.085-0.467,0.693-0.598,0.835c-0.621,0.684-1.321,1.145-1.49,2.149l-2.312-1.075l-3.354-2.741l-3.951-2.507l-1.342-1.432
	l-0.819-1.789v-0.953l0.073-1.312l0.896-4.058l-1.715-0.835l-2.46,1.195l-2.235,2.979l-0.447,0.238l-2.46-0.479h-2.312l-0.447,0.355
	l-0.671,1.551l-0.147,0.957l0.521,1.787l2.684,5.01l0.788,5.049l1.301,3.062l-4.548,0.118l-1.753-1.932l-2-3.5l-2-5.5l-2.521-4.813
	l-1.118-1.069l-2.533-0.836l-5.517-0.12l-0.373,0.237l-0.521,1.434l0.226,1.432l1.044,2.385l1.938,3.222l0.148,0.718l-0.148,2.146
	l-0.597,0.716l-0.969,0.358l-1.426-0.249l-1.033-1.896l-2.389-0.719l-4.507,1.772l-3.313-0.934l0.144,3.689l-2.31,4.056
	l-2.461,0.837l-1.714-0.239l-3.803,0.479l-0.446,0.357l-0.672,1.189l-0.147,0.957l0.819,2.859l5.45,8.283l1.75,4.5l3.606-2.523
	l0.97-1.91l1.641-2.146l1.863-1.671l1.343-0.118l0.97,0.475l1.19,1.313l0.074,1.189l-0.671,1.312l-2.534,2.745l-0.225,1.311
	l0.298,2.981l-0.671,1.909l-2.46,2.741l-1.192,0.597l-4.248,3.814l-3.455-0.021l-10.783-5.343l-0.67-1.549l-0.225-1.19l-1.641-2.028
	l-1.565-0.596l-3.354,1.432l-2.312-0.36l-4.174-2.857l-7.753-3.698l-2.98-1.789l-3.802-1.552l-1.863-0.598
	c-0.318-0.646-0.574-1.68-1.56-3.318c-0.937-2.791-0.859-3.147-1.489-4.022c0.427-0.068,1.015-0.394,1.538-0.465
	c1.528-0.205,4.789-4.562,3.571-6.198c-1.376-1.854-1.414-1.604-3.832-2.181l-0.295-0.834l0.966-2.056
	c3.196-2.286,3.558-5.744,3.558-5.744c2.104,3.441,5.038,0.875,7.359-0.59l4.317,0.458l0.737,0.079
	c2.526,1.037,4.057,1.447,5.378-1.313l1.05-2.166l0.177-0.625l0.155-1.604l0.357-3.278l-1.36-2.952l-0.652-0.661l-0.218-0.229
	l-0.568-1.196l-0.133-1.63l0.796-2.671c0.673-2.287,1.954-6.002-1.668-6.76c0.255-0.265,2.09-1.89,2.344-2.815
	c1.244-4.533-1.284-5.902-5.178-6.812l-3.481-4.99l-3.726-8.026l-0.353-0.54l-1.947-2.225c4.175,1.359,5.163,0.088,7.354-3.307
	c2.383-3.727,2.896-7.405-0.346-10.716l-0.24-1.015l1.997,1.67l1.641,0.598l1.564,0.12l1.268-0.357l0.226-0.597l-0.298-0.836
	l-1.642-1.666l-1.64-2.269l-0.299-1.074l-0.074-1.549l0.224-0.835l0.521-0.952l0.745-0.597l0.896-0.121l0.896,0.479l6.037,4.892
	l1.49,0.714v0.238l1.191-0.117l2.312-1.313l0.521-0.597l0.224-0.715v-1.91l-1.417-2.146l-4.022-3.697l-0.447-0.118l-0.969-1.433
	l-0.672-2.268l-0.819-6.918l-2.014-1.789l-5.292-1.67l-0.819-0.833l-0.373-0.718v-1.19l-0.671-3.339l0.074-1.194l-0.373-0.117
	l-4.323,2.386l-3.729,0.835l-3.057-0.117l-3.826-1.351c1.063-1.802-1.012-5.712-2.901-6.248c-4.529-1.28-5.32,0.999-7.819,4.446
	l-1.963,1.044l-1.257,0.016l-2.31-0.938l-1.084-1.17l-0.054-1.142l1.569-5.156c0.507-1.661-1.372-5.034-3.364-4.702
	c-4.95,0.825-6.538,0.727-7.834,1.292c-1.103,0.481-1.993,1.445-4.562,3.87c-0.649-0.438-1.436-0.979-2.302-1.324l-1.917-0.101
	l-3.125,1.5l-4.137,0.36l-5.107-0.249c0.39-1.76,0.81-3.077,0.325-4.847l0.548-0.97l0.37-0.659l2.682-1.538
	c3.196-1.835,0.842-6.368-0.655-8.341c2.542-2.562,2.435-1.945,3.247-4.979c0.284-1.04,0.084-1.64-0.193-2.676
	c-0.598-2.344-1.287-2.566-3.188-5.111l-0.055-1.337c2.431-4.542,3.083-5.085-0.795-7.521l1.624-2.268l0.447-1.191l0.446-3.104
	l0.672-0.835l4.622-2.265l0.895-0.835l1.938-2.863l5.067-11.447l0.521-2.983l-1.268-4.531l-0.446-2.979l0.745-1.67l0.97-0.953
	l1.564-0.836l0.671-0.953l-0.745-0.836l-2.906-1.788l-1.182-0.685l5.06-4.603l0.396-0.472c1.645-2.614,1.671-2.389,1.099-5.376
	c0.372-0.909,0.933-1.795,1.292-2.716l-2.396-0.285l-3.521,0.178l-4.994,2.384l-5.89,1.075l-13.193-0.718l-1.341,0.238l-1.641,1.074
	l-4.324,1.667l-1.416,0.36l-1.862-0.122l-0.671-0.835l0.074-1.192l2.685-4.056l0.671-1.667l1.193-5.845l-0.149-3.222l-0.969-5.012
	l-0.819-2.146l-2.234-3.459l-2.686-2.146l-3.949-0.717l-2.98,0.478l-7.306,3.816l-1.044-0.239l5.87-5.939l-1.322-2.768l0.446-1.07
	l0.818-3.459l0.598-3.698l2.312-5.604l0.224-1.909l-0.224-0.356l-4.696-0.356l-4.175-3.697l-3.205-0.598l-1.789,0.122l-2.311,1.191
	l-1.491,2.386l-0.074,1.431l0.447,1.789l-0.075,0.836l-0.447,0.716l-0.671,0.355l-2.385,0.122l-2.236-0.719l-0.895-0.714
	l-0.67-1.671l-0.522-0.598l-4.994-3.22l-1.789-1.67l-0.072-0.715l0.225-0.479l1.269-1.069l0.597-0.957l-0.373-2.387l0.224-0.596
	l0.373-0.477l1.714-0.835l2.313-2.148l0.969-1.907l0.596-3.102l-0.817-3.577l-1.864-2.506l-0.895-2.146l-0.3-3.696l-1.044-1.434
	l-1.267-2.503l0.146-2.146l0.227-0.598l3.802-6.559l0.447-1.192l0.074-1.19l-0.896-2.386l-1.491-2.147l-1.268-0.953l-7.156-2.268
	l-5.15,1.382l-1.5-3.25l2.927-3.259l3.323-1.991l0.75-2.75l-1.241-1.938l-0.973-0.957l-3.056-1.431l-4.025-0.714l-8.721-0.118
	l-3.28-0.717l-2.705-5.625l-3.75,0.5l-1.75,3.75l-2.306,1.971l-3.131-1.191l-5.219,2.387l-2.087,0.12l-0.373-0.359l0.073-1.906
	l2.759-4.295l0.521-2.146L673,792.433l-0.896-4.173l-3.495-6.882c2.611,0.119,4.203-2.271,3.512-4.425
	c2.121,1.207,4.428,0.893,6.033-1.712c0.364,0.81,1.036,1.971,1.964,2.25c1.177,0.354,1.898,0.582,2.461,0.657l1.097-1.103
	l0.209-1.192l-0.6-4.291l-0.895-3.104l-1.565-3.221l-0.298-1.67l0.226-0.835l0.896-0.715l3.876-0.479l2.98-1.55l1.489-1.67
	l0.671-1.312l-0.224-0.957l-1.64-1.07l-4.176-0.479l-1.862-0.597l-5.59-2.979l-3.06-1.191l-5.438-1.192l-2.089-1.432l-0.744-2.027
	l-3.262-2.904l2.5-2.25l2.697-1.046l0.97-3.938l0.148-3.338l-0.224-2.984l0.445-7.152l2.71-3.29l3.75-2.5l0.5-5l2.581,1.966
	l5.594,1.667h1.562l0.447-0.357l0.745-1.432l-0.298-2.624l4.1-0.476l2.236-4.295l2.385-6.438l0.969-1.67l3.131-4.174l3.206-3.698
	l1.789-3.104l0.521-1.429l0.224-2.268l-0.82-1.671l-2.606-2.98l-0.074-0.717l0.521-1.906v-2.385l-0.225-0.835l-2.235-2.028
	l-0.521-0.835l0.224-2.624l0.227-1.312l0.817-0.953l4.103-2.624l2.013-2.146l1.192-2.979v-1.672l-1.49-0.597l-3.206-0.479
	l-2.385-1.671l-2.016-2.624l-2.563-3.24l-3.771-1.051l-0.965,0.476l-0.596,0.838l-4.178,1.312l-2.015,1.069l-4.694,0.966
	l-1.531,1.655l-1.155,1.563l-1.191,1.773l-5.812,5.372l-1.417,2.386l-2.609,5.728l-1.64,5.13l-0.298,1.907l-1.789,5.13l-1.416,2.385
	l-4.771,2.979l-3.43,1.19l-3.354-0.117l-2.534-0.952l-1.342-0.121l-1.938,0.479l-4.249,2.979l-2.311,1.191l-3.951,1.433
	l-4.919,0.118l-3.28,0.237l-2.979-0.355l-2.608-0.835l-6.262-2.98l-4.921,0.118l-5.366,1.073l-2.237-0.479l-2.012-1.07l-1.864,1.432
	l-0.969,0.235l-1.344-0.355l-0.97-0.835l-1.118-1.433l-0.521-4.646l0.149-2.148l1.342-6.68l-2.016-4.292l-0.072-3.581l1.043-5.844
	l-0.074-2.503l-0.597-3.22l-1.27-4.416l0.426-7.633l-5.719-2.146l-0.596-0.597l-0.82-1.91l-3.651-0.952l-1.938-0.954l-0.596-0.717
	l-3.653-1.55l-9.021,4.892l-9.837,4.067l-5.293,1.667l-2.386-0.117l-10.808-3.577l-0.671,1.549l-1.043,1.191l-2.833,2.268
	l-3.354,1.907l-1.789,1.909l-0.448,1.075l-0.072,1.549l-2.015,9.78l-0.895,2.386l-0.82,1.311l-2.684,2.385l-1.565,0.72l-2.46,0.479
	h-2.534l-3.951-1.195l-0.298,0.719l-1.488,0.835l-5.221,0.836l-3.429-0.598l-4.696-2.623l-4.396,1.312l-6.261-2.624l-0.447,0.355
	l0.224,0.122l0.82,5.247l2.684,6.084l0.373,1.55l0.373,3.459l0.597,2.386l0.819,1.549l1.342,1.313l2.016,1.069l8.871,3.938
	l5.737,2.146l6.935,4.652l3.278,1.67l2.161,1.789l3.532,2.687l0.373,1.312l1.118,1.553l0.521,1.667l0.672,1.074l1.862,6.321
	l2.162,11.33l-0.074,2.624l0.298,5.845l-0.224,0.355l-0.373,3.816l-0.224,6.558l0.074,11.928l-0.521,3.697l-3.01,3.992l0.298,0.479
	l0.224,2.026l0.972,1.55l5.59,3.577l8.693,4.52l-8.547,7.291l-2.758,3.221l-2.385,1.906l-3.131,1.671l-1.938,1.549l-7.305,4.295
	l-1.938,1.432l-0.444,1.312l0.146,2.861l-0.224,2.745l-0.448,1.312l-1.043,1.073l-1.341,0.835l-1.864,0.355l-3.801-0.238
	l-1.938-0.835l-2.159-1.433l-0.746-0.953l-1.863-1.311l-1.938-0.835l-11.403-0.239l-2.087-0.954l-2.313-2.147l-2.087-1.069
	l-2.46-0.239l-1.416,0.715l-3.13,2.506l-5.516,5.008l-2.687,3.577l-2.087,2.269l-4.324,8.35l-1.49,1.668l-4.622,0.238l-6.855,1.073
	l-5.591,2.027l-4.474,2.503l-2.387-1.312l-9.02-2.862l-2.686-0.356l-4.022,0.598l-3.729,1.67l-2.012,1.312l-4.771,4.174
	l-7.452,8.231l-1.643,1.191l-2.385-2.385l-4.324-2.507l-7.007-2.025l-2.98-1.55l-0.148-1.192l-0.978-3.771l-4.985-7.562
	l-0.225-1.552l18.21-6.389l4.75-5.75l7.499-1l-1.165-8.925l0.148-0.237l-0.07-4.536l0.373-2.386l1.27-1.905l4.174-3.343l0.373-1.432
	l-0.447-0.832l-1.043-0.835l-6.485-2.745h-3.727l-4.622,1.192h-3.503l-3.205-0.597l-0.819-0.598l0.819-1.905l0.597-2.979
	l-2.607-1.314l-4.021,0.249l-1.644-0.604l-1.417-1.074l-0.597-1.311v-1.313l0.147-0.714l1.269-1.67l4.846-3.698l1.118-1.905
	l0.072-3.459l-0.895-2.387l-1.789-2.388l-0.373-0.832v-1.192l1.864-3.102l6.261-5.487l0.299-0.479l0.371-1.787l-0.073-0.954
	l-0.671-1.312l-0.97-1.793l-2.385-3.22l-0.97-2.264l-0.521-1.792l0.373-1.551l0.969-0.714l3.058-0.719l4.622-0.714h4.101
	l0.148-1.313l-2.906-4.413l-1.417-1.549l-1.269-3.104l-2.759-4.291v-0.359h-0.224l-0.82-2.265l-1.416-2.027l-1.789-2.507
	l-1.191-1.19l-3.354-2.624l-1.562-5.365l-7.531,2.741l-11.333,4.892l-3.646,0.704l-4.248,0.127l-0.45-5.604l-8.571-5.127
	l-3.132-2.268l-0.598-0.118l-0.97-0.956l-6.782-3.937l-3.906-0.812l-1.422-11.382l-3.914-6.53l-0.672-2.982l-1.789-2.386
	l-6.07-0.364l-15.099-6.673l-6.411,12.045l-3.56,8.142l9.225,5.219l-0.82,0.718l-5.292,9.539l0.149,0.479l-0.373,3.104l-0.746,1.069
	l-4.025,4.178l-1.417,0.477l-4.92-1.071h-2.46l-4.175,1.191l-5.069,3.935l-1.19,1.313l-2.089,1.191l-2.16,2.146l-2.76,2.146
	l-0.743,0.957l-1.863,1.311l-4.771,5.248l-1.715,1.432l-2.385,3.104l-3.578,3.1l-3.056,1.553l-8.351,1.55l-0.97,0.479l-1.267,1.07
	l-3.205,3.815l-2.46,1.433l-2.387,0.597l-1.862,1.073l-1.789,1.313l-4.547,4.292l-1.864,0.835l-1.191,0.953l-4.547,0.596
	l-20.2-0.234l-11.256,0.715h-7.454l-0.521,0.117l-2.013,1.671l-3.729,4.174l-3.503,2.983l-2.013,1.069l-3.131,0.835l-3.829,0.32
	l1.068-0.904l1.806-2.457l-0.396-1.169l-3.087-2.958l-1.893-2.958l-2.894-6.644l-0.783-1.8l0.328-0.857l0.879-2.278l-0.482-4.473
	l-0.201-1.813l1.432-2.554l0.38-0.68l1.396-3.018l3.131-6.787l1.007-4.126l3.921-5.38l0.335-4.938l0.188-2.719l-3.168-11.008
	l-1.491-1.887l-0.306-0.382l-4.974-1.002l-0.438-0.083l-3.884-8.658l-3.104-2.646l-1.886-8.741l-2.497-5.605l-1.9-2.358
	l-2.206,2.159l-3.728,6.867l-2.272,2.757l-0.634,0.773l-2.222,1.479l-1.691,0.273l-8.021-2.945l-14.938-3.841l-0.201-3.04
	l-0.798-0.301l-21.767,0.203l-3.004-1.167l-0.396-0.287l-9.951-7.265l-3.72-1.265l-1.609-1.37l1.072-15.898L49.19,620.53l6.299,0.87
	l3.451,0.479l1.998-5.2l0.806-0.298l6.135,1.36l2.915-0.586l0.604-0.989l-0.41-1.266l-11.076-9.708l-0.299-1.669l1.388-8.64
	l-0.402-2.555l-2.131-2.646l-0.77-0.955l-0.335-0.417l2.714-3.731l0.789-0.132l2.133-0.369l0.708-1.062l0.798-1.19l1.306-0.69
	l2.722-0.883l1.363,0.035l2.362,0.06l2.35-1.455l0.364-0.229h3.525l0.179,0.071l2.743,1.108l3.556,0.25l1.887,0.131l0.171-0.068
	l2.952-1.206l1.035,0.347l2.788,0.93l0.782,0.025l3.146,0.082l0.446-0.382l1.163-0.991l1.497,0.023l2.49,0.023l3.966,0.048
	l1.514,1.573l1.515,0.189l1.608,2.268l4.524,1.371l0.729-0.022l3.905-0.167l0.835-0.322l2.69-1.037l1.281-0.155l0.73-0.083
	l1.312-0.154l3.221-0.383l3.623,0.396l2.713,2.266l5.836,1.683l3.43-0.573l2.272-3.087l0.253-0.347l1.678-19.404l1.305-15.005
	l0.663-7.585l0.872-21.002l-0.491-4.316l1.104-5.82l0.126-0.654l4.415-9.378l0.476-1.01l-1.306-4.817l7.119-9.686l5.53-8.979
	l7.692-12.486l5.538-8.979l6.709-23.233l1.534-2.838l-1.788-16.066l-2.104-18.892l0.655-8.23l-0.5-3.242l-4.531-8.017l-0.312-0.549
	l-0.193-2.062l2.28-8.325l1.252-2.72l2.354-5.116l2.854-1.36l1.768-1.743l1.313-1.287l-1.76-0.989l-0.172-0.098l-0.499-1.943
	l0.655-4.425l0.396-2.659l-0.888-5.594l-0.679-0.716l-0.439-0.465l-0.553-5.785l0.619,0.156l1.768-4.794l3.189-3.709l0.521-2.159
	l1.088-10.89l-1.2-3.042l3.398-4.103l0.856-5.88l1.952-1.49l1.229-0.942l0.635-2.838l-3.369-1.014l-12.574-0.562l-2.273-0.798
	l-2.451-0.859l2.234-1.944l0.226-1.073l0.982-4.724l0.111-0.524l-0.933,0.549l-1.223,0.716l-0.537,0.763l-4.42,6.273l-11.047-0.346
	l-15.759,0.608l-2.758-0.201l-1.938-1.384l-2.975,0.189l-2.146,1.265l-2.146-0.405l-3.168-1.479l-2.854-3.937l-1.825-4.033
	l0.224-0.56l0.172-0.417l3.623-8.92l-0.99-7.944l0.016-6.476l1.78-11.378l1.154-4.641l2.072-8.301l-0.41-1.085l1.052-5.593
	l4.442-9.303c0,0,0.376-1.87-0.377-3.188c-0.754-1.317-2.07-4.99-2.07-6.307c0-1.317-0.376-3.764-0.376-3.764l3.673-1.505
	c0,0,1.692,2.634,2.445,3.764c0.753,1.129,2.445,2.822,2.445,2.822l4.802,1.227l1.692,1.316l1.13,2.259l1.818-0.729l-1.186-1.431
	l0.216-1.767l2.571-0.87l1.736,0.989l3.921-2.922l2.19-3.721l-2.779-1.777l-2.558-2.66l-0.291-3.243l-1.536-1.181l-1.445,0.19
	l-1.641-0.896l-3.994-2.958l-0.41-1.181l0.626-1.861l0.701-1.073l2.721-4.209l9.603-6.822l3.732-4.401l1.351-2.933l0.626-0.488
	l1.163-0.896l2.869-2.218l1.454-2.839l9.729-6.715l3.012-3.708l3.467-1.79l0.671-0.346l11.366-3.458l1.671-2.242l2.476,0.118
	l10.331-3.173l2.788,0.322l1.854-0.477l1.641,1.777l9.177,0.272l9.905-0.501l1.521,0.061l11.979,0.55l6.561,4.188l2.563,1.098
	l2.378-0.072l16.541-4.342l5.604-2.684l7.542-1.384l0.522-0.19l9.114-3.327l4.966-1.015l5.156,0.062l3.297,0.727l9.605-0.955
	l3.951-1.92l10.033-1.526l9.713-1.038l4.979-1.598l10.317,0.44l7.961-0.668l7.842,0.131l8.192,1.229l1.513,0.359l5.105,1.204
	l4.384,3.006l-0.188,0.25l-2.66,3.435l0.066,1.861l-0.462,2.838l2.057,5.833l-0.237,2.146l1.96,5.535l1.408,1.585l0.782,2.373
	l3.921-0.132l3.749-2.29l2.477-0.059l0.812,1.454l5.271,9.446l2.252,6.131l1.617,1.396l4.896,7.848l6.604,14.539l0.262,2.457
	l-2.609,4.984l-0.146,0.285l-0.447,0.86l-0.938,0.667l-0.773,2.731l-1.282,0.131l-0.365,0.036l-2.443-1.217l-2.088,1.825
	l-1.026,0.18l-1.066,1.942l0.827,0.287l0.23,0.071l3.532,1.192l-1.261,1.348l-8.267,2.707l-3.913,0.323l-3.064-1.039l-1.354,0.12
	l-0.598,0.048l-0.344,1.86l0.104,5.688l0.908,5.498l0.104,0.609l3.168,6.129l6.15,5.81l1.535,0.321l4.062-3.363l3.81-0.334
	l2.653,0.441l2.922,2.804l2.886,4.566l5.621,6.094l3.854,7.038l0.701,0.894l8.252,2.231l5.143-0.693l3.332-2.479l7.597-10.055
	l0.561-2.052l-0.253-2.564l0.969-2.039l3.257-3.459l1.782-11.057l-0.029-0.441l-0.507-7.716l0.492-3.911l-1.581-7.599l-1.461-0.847
	l-5.403-0.07l-6.419,2.229l-8.394-0.691l-1.148-0.083l-0.454-2.958l3.779-23.984l1.097-2.517l4.859-5.593l3.548-2.386l8.514-3.064
	l7.59,1.433l3.568,1.549l1.774,1.671l1.424,2.516l2.736,3.77l3.75,5.2l4.157,2.826l3.361,1.359l4.302,0.775l7.813,4.688l8.245,1.229
	l0.863,0.644l4.094,0.68l3.414-0.797l5.345,4.34l4.287,1.276l0.551,2.219l-0.395,3.675l-1.966,1.556l-1.284,1.019l-3.423,1.098
	l-4.101,3.638l-2.295,2.947l-1.06,1.358l-0.253,0.323l-4.233,9.231c0,0,0.671,15.965-0.315,19.179s-3.908,10.045-3.908,12.091
	s-0.401,9.279,1.753,12.493c2.155,3.214,4.785,5.662,5.078,7.123c0.291,1.461,1.168,3.507,0.291,5.552
	c-0.876,2.045-2.338,8.11-2.338,10.448s-0.292,19.214-0.876,20.675s-2.447,7.124-2.447,8.877s1.754,8.876,1.754,8.876l2.191,4.614
	l2.853-1.08c-0.313-0.742-2.615-6.263-2.89-7.625c-0.292-1.461-0.876-6.831,0.878-8.584c1.753-1.753,5.661-6.831,5.661-8.292
	s-0.876-6.136,0.292-8.877c1.168-2.74,1.753-3.799,1.753-6.831s-0.876-4.201-0.292-6.247s-0.292-8.292-0.877-9.753
	c-0.584-1.461-2.246-4.41-2.246-4.41l0.282-3.625l-0.686-1.492l-0.77-14.538l0.729-4.496l-1.998-10.447l0.553-7.822h2.531
	c0,0,2.25-3.562,2.688-4c0.438-0.438,2.812-0.438,3.438-0.438s8.541-3.713,8.541-3.713l4.086,0.991l2.763,0.112l4.503-0.072
	l5.573-6.069l5.252-4.23l0.243-4.938l-2.239-1.562l-1.288-5.333l2.364-1.439l-0.053-6.294l-4.092-0.312l-1.971-9.791l1.561-2.993
	l7.217-6.834l-1.631-0.784l-5.516-1.387c0,0-4.311,1.428-4.722,1.62c-0.41,0.19-5.005-1.189-5.005-1.189l-2.989,2.889l-12.243-4.591
	l-2.247,0.435l-0.57,0.109l-2.187-5.455l-3.466-8.547l-1.899-2.301l-2.451-4.963l-1.036-3.948l-0.021-5.604l-0.3-2.54l2.609-9.721
	l9.348-23.4l1.901-4.747l5.271-20.18l1.796-1.433l5.104-13.32l2.722-4.844l3.729-4.639l0.179-2.136l2.432-1.717l12.366-5.72
	l4.047-1.088l3.146,7.785l1.854,0.334l4.558,3.853l0.291,1.203l0.544,2.254l1.862,0.049l4.675,3.351l4.271,2.862l6.299,3.982
	l6.873,2.351l2.4-0.728l2.563,0.764l4.683-0.668l0.35,0.071l5.822,1.276l8.99,0.549l0.744,0.728l1.916,0.322l1.38-1.039l7.268-0.869
	l0.864-1.063l11.256-2.421l10.184,2.159l1.534,0.632l0.947,2.588l1.237,0.323l0.364-1.752l-1.482-2.005l-2.431-1.741l0.028-0.203
	l0.1-0.68l12.521-5.809l11.42-3.877l4.249-0.059l3.488,1.086l14.527-0.454l7.355-0.226l15.423,2.922l0.218,0.035l7.597,7.608
	l3.257,1.682l1.588,1.825l2.223,7.036l4.412,7.038l1.252,1.992l0.618,2.17l5.241,9.911l3.958,4.65l1.797,4.376l4.323,5.845
	l8.327,8.373l7.894,7.515l4.42,5.855l5.354,10.794l1.975,7.431l2.736,3.732l0.708,1.134l0.812,1.312l2.161,3.482l2.187,2.039
	l1.743,0.262l3.013,4.365l0.396,0.573l4.757,4.258l0.508,0.452l3.731,2.005l4.312,0.249l4.383,3.614l2.938,1.287l8.433,7.587
	l2.922,1.479l3.243-1.24l4.031-0.429l3.496,0.036l3.042,1.097l2.259-0.013l3.199,0.303L880.086,195.56z"/>
<g id="Borders">
	<g id="District_borders_1_">
		<polyline fill="none" stroke="#646464" stroke-width="1.75" stroke-miterlimit="3.8637" points="220.533,736.989 215.978,733.841
			217.399,731.353 213.846,725.485 203.886,712.327 196.781,686.195 199.268,685.485 191.268,666.998 192.689,664.683
			195.886,665.748 208.689,658.287 207.268,652.063 211.333,648.945 210.083,646.695 207.583,645.695 206.833,642.195
			209.583,641.695 212.333,639.695 212.833,636.195 209.333,634.445 207.583,633.945 207.833,630.445 206.333,626.195
			189.083,627.695 188.583,622.695 179.083,619.695 178.583,610.695 173.833,611.445 172.583,605.195 168.083,604.195
			167.833,602.195 164.583,599.945 163.583,605.195 161.833,604.945 157.083,599.945 153.083,599.695 152.833,597.695
			149.333,597.945 148.833,600.695 147.333,601.695 145.833,597.195 147.333,595.695 145.583,591.945 134.083,596.695
			136.333,584.195 		"/>
		<polyline fill="none" stroke="#646464" stroke-width="1.75" stroke-miterlimit="3.8637" points="389.082,741.945 397.831,742.695
			393.582,748.445 398.831,755.445 401.831,755.445 402.581,757.195 406.331,757.695 413.081,761.445 416.331,760.195
			423.331,757.195 432.331,756.945 431.831,759.945 434.331,765.195 438.581,763.445 437.581,760.695 438.581,759.445
			441.081,760.195 443.581,758.445 441.081,755.945 440.081,752.695 442.831,750.195 441.081,746.445 447.831,743.695
			451.581,740.445 454.081,736.445 452.581,731.945 449.581,731.445 448.081,733.195 446.081,729.695 443.831,731.945
			441.831,730.945 438.581,733.195 433.081,727.945 432.331,724.445 434.581,724.445 433.331,721.195 428.831,722.195
			426.081,721.195 423.831,722.695 420.081,721.445 409.831,721.195 411.081,718.445 408.081,715.445 406.831,712.695
			399.081,716.695 393.172,720.411 		"/>
		<path fill="none" stroke="#646464" stroke-width="1.75" stroke-miterlimit="3.8637" d="M189.024,384.077l11.687-2.633l8.375-0.751
			h7.625l4.246,0.751l4.129,1.502h3.495l2.628-0.375l6.874,0.375l3.754,3.87l1.877-1.243l3.871,2.744v3.379l20.129,3.87l8.375,9.501
			l1.618,7.25l5.631,4.505l9.242-4.505l9.125-5.372l26.252,17.126l3.756,17.126l-2.628,3.12l2.628,5.256h3.493l1.126,4.997
			l6.123,3.003l2.63-0.751l1.126,2.369l12.995,3.754v5.372l-5.745,6.874l-0.751,3.754l-6.499,8.751l-18.63,7.625l-0.376,4.621
			l-1.877,6.007l-2.742,5.372l-0.752,3.495l-1.878,3.379l7.625,12.621l-1.126,3.379h-3.493l-4.882,4.997l-3.118,1.126l-4.132,1.126
			l-1.126,5.372l-3.12,3.003l6.498,6.874v2.628l6.123,2.252l2.253,6.498l1.878,8.375h-3.004l-0.375,3.871l-5.748,1.877
			c0,0-9.501,7.249-11.379,8.751c-1.877,1.501-3.609,4.505-2.742,8c0.865,3.495,3.868,11.495,3.868,11.495l-3.493,4.88v10.252
			l1.24,5.372l-1.617,11.003l1.617,3.119l-3.119,1.502l-0.751,4.997l0.751,3.754"/>
		<polyline fill="none" stroke="#646464" stroke-width="1.75" stroke-miterlimit="3.8637" points="321.035,566.117 342.46,566.664
			346.207,565.102 349.445,565.337 350.141,563.637 353.43,560.388 363.988,557.099 367.603,558.561 380.896,567.82
			383.595,567.641 385.582,566.82 389.775,563.271 394.16,564.733 399.603,563.637 404.354,566.927 409.796,565.83 419.258,581.83
			425.064,584.754 427.621,596.368 426.159,600.388 425.43,605.465 416.331,609.85 415.237,616.388 417.796,620.368
			415.603,631.657 409.064,631.657 411.258,636.733 422.141,645.465 419.258,648.754 421.775,652.733 421.045,657.119
			423.237,662.927 420.354,664.022 421.775,669.83 438.507,670.561 447.969,675.637 461.045,655.657 470.141,654.927
			477.408,652.003 489.197,644.899 487.603,651.637 486.507,658.216 483.59,664.952 		"/>
		<polyline fill="none" stroke="#646464" stroke-width="1.75" stroke-miterlimit="3.8637" points="301.705,406.946 304.332,382.927
			307.988,382.561 308.679,379.272 306.526,376.754 309.409,358.195 306.526,357.099 307.295,347.686 312.742,352.074
			319.594,350.394 321.411,352.088 330.26,353.266 334.651,353.029 339.988,354.541 345.126,354.545 349.045,353.484
			356.036,354.603 360.972,358.205 364.021,359.124 366.176,364.561 362.526,366.927 364.313,369.484 362.526,371.637
			372.679,384.388 377.43,381.099 389.775,390.195 388.679,394.176 394.892,394.906 394.892,399.293 402.892,399.657
			405.408,401.85 410.159,400.022 422.87,410.176 425.064,415.293 428.313,417.484 433.064,425.85 438.507,433.119 436.26,439.725
			435.621,447.657 439.234,454.014 437.775,461.83 447.603,465.484 447.969,468.733 447.603,473.119 454.141,477.83 457.43,481.119
			466.892,488.388 471.237,485.83 474.159,485.83 473.064,494.561 467.988,501.83 471.237,513.85 467.621,515.271 468.679,518.927
			464.331,522.541 459.621,521.85 456.698,534.561 450.892,533.465 448.331,530.216 445.775,532.733 434.892,530.906
			431.237,538.176 420.679,537.119 416.698,554.176 424.331,556.368 423.237,560.388 418.159,559.293 414.507,559.293
			411.621,559.657 409.796,565.83 		"/>
		<path fill="none" stroke="#646464" stroke-width="1.75" stroke-miterlimit="3.8637" d="M329.262,352.088l-5.641-11.354v-4.711
			l1.058-3.654l7.675-2.884l0.325-2.558l6.213-0.365l24.365-21.076l10.884-26.193l-6.538-21.807l25.097-17.096l3.288-0.731
			l-1.462-3.289l2.153-5.441l-2.884-4.021h-3.289v-3.615h-3.98l-0.364-6.902l2.52-5.848l-10.153-2.884c0,0-5.807,0.04-9.096,1.462
			s-12.751,5.808-12.751,5.808l-1.058-8.731l3.979-8.365v-5.077l1.097-2.923l0.73-6.173l6.173-3.655l-2.558-3.979l2.558-11.289
			l-8.73-5.442l2.56-4.02c0,0,1.827-9.827,0-13.442s-4.385-9.462-4.385-9.462l-5.073-8.53"/>
		<polyline fill="none" stroke="#646464" stroke-width="1.75" stroke-miterlimit="3.8637" points="420.103,210.987 417.796,205.83
			414.87,201.484 415.603,194.906 409.796,193.484 410.526,190.195 414.141,187.637 410.526,184.753 410.526,178.541
			406.141,178.541 403.621,171.637 412.354,167.292 410.892,164.003 414.141,160.753 420.679,162.541 429.045,158.561 		"/>
		<polyline fill="none" stroke="#646464" stroke-width="1.75" stroke-miterlimit="3.8637" points="206.091,287.84 213.792,289.334
			217.43,289.85 219.257,281.484 217.43,274.541 220.313,271.292 212.313,265.85 213.775,261.83 211.623,260.003 213.044,257.119
			210.679,253.952 202.892,254.926 199.603,259.637 197.044,256.388 193.43,256.388 191.237,259.637 187.988,259.272
			186.161,261.464 179.988,260.733 174.872,257.85 168.943,260.189 163.099,261.919 161.43,264.388 159.685,269.755 154.161,273.85
			146.892,274.906 146.892,271.657 142.141,268.368 138.526,261.83 		"/>
		<polyline fill="none" stroke="#646464" stroke-width="1.75" stroke-miterlimit="3.8637" points="218.526,278.195 222.506,278.195
			223.603,270.926 225.795,270.561 227.257,274.906 230.141,266.906 232.699,267.637 231.968,275.272 234.526,275.272
			235.988,279.657 242.526,279.657 245.41,281.85 248.699,281.119 253.044,277.099 253.41,272.753 256.699,271.657 259.623,272.022
			262.141,269.83 266.526,268.733 270.141,271.657 273.43,276.368 277.41,277.83 279.603,275.637 283.257,275.637 287.603,280.388
			296.333,281.85 297.064,286.561 303.603,285.464 303.603,281.119 310.871,280.753 315.258,282.906 338.16,273.484
			355.622,268.368 361.43,273.85 370.892,268.368 		"/>
		<polyline fill="none" stroke="#646464" stroke-width="1.75" stroke-miterlimit="3.8637" points="290.161,137.484 288.699,140.368
			276.354,143.292 275.257,147.637 270.872,147.637 268.679,151.292 272.699,153.119 274.892,158.926 273.43,160.753
			265.795,159.292 259.623,161.85 252.679,160.753 250.892,163.637 253.044,166.561 250.892,167.292 250.526,173.464
			246.872,177.119 249.064,181.099 250.161,189.83 246.872,195.272 250.892,199.657 255.237,196.368 258.161,198.561
			265.43,194.541 280.699,191.657 310.871,188.003 315.258,198.195 312.332,200.022 309.775,203.637 318.871,212.733
			318.141,230.561 323.258,230.561 326.507,227.272 331.622,226.906 337.796,229.83 336.332,233.85 333.409,234.541
			333.775,239.657 338.526,241.85 343.237,238.926 345.43,242.906 342.871,245.83 346.526,246.561 346.892,250.175 342.141,252.368
			342.871,254.926 346.892,256.022 354.526,254.195 355.622,257.484 352.332,258.906 355.622,268.368 		"/>
		<polyline fill="none" stroke="#646464" stroke-width="1.75" stroke-miterlimit="3.8637" points="456.941,254.197 459.405,259.153
			456.513,265.473 457.615,268.228 456.705,271.066 452.094,275.384 447.156,277.663 445.138,281.361 436.983,285.988
			427.988,286.561 426.159,284.368 423.603,282.906 420.354,282.906 414.141,291.272 412.354,296.388 397.775,299.637
			394.16,288.753 391.603,289.484 387.622,286.561 374.141,279.292 		"/>
		<polyline fill="none" stroke="#646464" stroke-width="1.75" stroke-miterlimit="3.8637" points="415.969,404.368 424.331,396.368
			423.603,390.561 429.87,385.219 434.903,382.858 439.237,381.83 440.331,374.927 442.892,373.465 443.621,365.83 446.141,365.099
			450.159,357.465 447.237,354.541 449.796,351.293 455.603,347.637 459.988,342.195 470.141,343.657 470.87,346.176
			476.354,348.368 486.141,348.004 489.064,344.754 484.354,328.754 481.43,330.176 477.775,329.119 482.526,324.368
			478.507,319.293 477.408,311.657 479.969,310.561 479.603,307.637 475.988,307.637 471.969,298.215 463.969,299.637
			459.988,299.272 456.331,296.022 456.331,293.099 451.258,291.637 451.258,288.022 449.064,284.368 451.621,280.753
			450.54,277.043 		"/>
		<polyline fill="none" stroke="#646464" stroke-width="1.75" stroke-miterlimit="3.8637" points="439.237,381.83 446.87,382.561
			454.507,381.83 457.796,385.85 453.775,389.83 462.507,394.176 477.045,389.099 479.969,380.368 482.526,378.906 481.796,373.465
			487.237,368.754 487.969,363.637 484.354,358.927 483.621,353.119 486.87,351.293 486.141,348.004 		"/>
		<polyline fill="none" stroke="#646464" stroke-width="1.75" stroke-miterlimit="3.8637" points="487.969,363.637 490.957,360.07
			495.396,360.134 497.957,358.384 504.271,358.259 506.457,356.134 507.621,356.368 512.698,377.484 525.045,373.465
			528.331,369.85 532.679,371.637 539.258,378.541 541.045,374.927 556.354,380.004 560.331,376.754 563.258,378.541
			565.045,381.099 574.87,387.637 577.43,381.83 		"/>
		<polyline fill="none" stroke="#646464" stroke-width="1.75" stroke-miterlimit="3.8637" points="590.78,408.29 587.831,409.945
			585.331,413.445 585.581,418.695 582.581,419.195 580.081,425.445 577.831,426.195 571.831,420.945 569.331,424.195
			571.081,429.695 563.331,433.945 559.331,428.195 562.581,424.695 563.081,420.195 565.331,418.195 566.081,414.945
			561.331,413.445 563.081,405.195 573.081,397.695 573.831,394.695 572.081,393.445 574.87,387.637 		"/>
		<path fill="none" stroke="#646464" stroke-width="1.75" stroke-miterlimit="3.8637" d="M526.956,513.82l4.875,4.375l7.5-4.5
			l5.5,0.5l3.5-5.5h3l-1.5-5l21.5-8.5l8.72-2.368c0,0-3.72-4.132-3.72-6.132s0-6,0-6l2.5-3l-0.5-4l3.5-1l-3-4.5l2-2.5l4-0.5l3,3
			l2.5-2.5l1-7l-2.5-5.5l1-8l-7.5-3l-1,4l-4.5-8l4.5-8l-1.25-4.75"/>
		<path fill="none" stroke="#646464" stroke-width="1.75" stroke-miterlimit="3.8637" d="M664.574,370.72l9.51,1.225l7,3.75
			l-0.25-3.75l7-0.25l0.75-7.5l-1-8.5l-6-6.25l-1.65-4.276l-2.35-24.724l-5.25-2l-2.25-7.5l3.5-10.5l-5-2.75l2-3.75v-3.25
			l-7.806-7.212l-1.444,2.962l-5.25-4l0.75-4.75l-2-2.25v-3.25l-9-3.25l0.75-3.25l-12-6l-12.25,3.5l-6.5-1l-0.75,4.25l-15.25,8.25
			l4.25,1.5l-0.25,4.75l2.75,1.75l0.75,4.75l2,2.75l-1.5,1.75l-2.25-1.75l-1.5,1.5l-6.5,2.25l-0.25,6.5l-13,1.25l0.25,2.75
			l-3.75,0.5l-0.75,2.75l-9,0.25v-2.5l-6.25,0.5l-3.25-2l-7.5-2l-2.5,0.75l-1.25,3.25l-9.75-1.75c0,0-2.243-0.77-1.015-4.354
			c1.231-3.585,1.82-5.405,1.82-10.114c0-4.708,0.349-8-0.588-9.767c-0.938-1.766-2.409-3.53-2.409-3.53"/>
		<path fill="none" stroke="#646464" stroke-width="1.75" stroke-miterlimit="3.8637" d="M822.275,281.695l3.558,4.5l2.25,9.5
			l3.75,1.25l2,5.25l-1.75,1.25l-2.5-0.75l0.566,3.842l2.184,3.658l1.5,8.75l-0.5,6l4.75,1.5l1.5,4l15.5,3l1.25,3.75l2.5,0.75
			l-0.25,3.75l4.25,0.5l-0.25,5.25l8.75,7.75l4-0.5l-0.25,2.5c0,0-7.25,2.25-10.5,2.75s-12-0.75-12-0.75l-1,8.5l-3.75,1.5
			l-3.75,4.75l-2.5,0.25l-0.25,7.25l4.25,5c0,0-2.5,10-2.75,11s-1.5,2.25-1.5,2.25v2.5l-3.75,2l3,6.5l3.75,3.5l7.75,1.25l3.25,6.5
			l-5,3.5v3.75l3.75,2.75l-1.75,2.5l1.75,0.75l-2.5,3.75l-6.5,5.75l-4,2.75l-2.5-1.25l-3.25,1.25l-0.5,5.5l-2.25,5.25l-6.75,1
			l-2-5.5l-4.5-2.75l-7.25,0.75l-3,1.25l-7,1l-4.836,4.725"/>
		<polyline fill="none" stroke="#646464" stroke-width="1.75" stroke-miterlimit="3.8637" points="590.831,641.695 600.081,639.945
			604.831,631.695 605.331,634.445 610.831,633.445 611.831,628.945 613.831,629.945 624.081,629.445 630.331,624.195
			632.831,629.445 634.581,628.195 635.081,622.195 641.081,619.695 643.331,620.445 645.081,618.195 646.581,602.945
			638.331,597.945 639.581,590.195 642.581,587.945 653.831,586.445 657.081,583.445 663.081,579.445 665.581,580.445
			666.331,577.445 670.331,575.945 675.331,577.695 675.331,573.195 677.581,572.945 677.331,564.695 679.331,563.695
			680.581,559.945 675.331,553.695 677.081,549.945 682.331,548.945 686.831,543.445 688.331,537.445 687.331,531.195
			689.581,530.945 690.081,525.695 686.331,520.445 690.331,512.695 683.581,507.195 687.581,505.695 682.831,497.195
			686.831,495.945 687.831,492.445 689.831,491.695 691.331,493.695 697.081,491.195 698.081,488.695 701.581,487.695
			700.581,480.945 703.893,474.163 		"/>
		<polyline fill="none" stroke="#646464" stroke-width="1.75" stroke-miterlimit="3.8637" points="705.275,682.366 717.831,685.195
			718.581,682.945 728.581,682.195 732.081,680.195 733.581,675.195 741.581,673.945 742.331,671.695 749.331,670.945
			746.831,666.195 748.581,664.945 747.331,661.445 739.581,661.445 740.198,657.617 744.581,655.695 746.081,654.195
			744.831,650.195 745.581,644.195 747.581,642.945 743.331,640.945 742.331,636.695 739.331,636.445 738.581,633.445
			747.081,625.695 761.081,621.445 763.831,622.445 765.581,620.695 771.831,620.945 774.081,619.195 774.831,616.195
			768.581,611.445 766.831,602.945 769.331,599.445 776.831,596.945 778.831,597.945 779.331,594.445 782.831,594.945
			787.581,595.195 791.831,592.945 793.831,587.695 798.581,583.195 800.581,583.195 801.581,586.195 805.581,588.195
			808.081,586.695 809.331,589.945 811.331,591.945 815.581,592.195 815.331,589.695 818.831,587.195 820.081,581.195
			818.331,579.445 818.831,575.445 814.581,576.695 812.581,570.945 808.331,567.695 809.081,557.945 801.831,555.695
			801.331,547.195 783.331,547.945 779.081,544.445 772.331,544.445 765.581,551.945 761.081,552.695 758.081,549.945
			765.331,547.695 765.331,543.695 760.331,543.695 764.331,540.945 763.081,535.445 757.331,533.945 759.45,529.722 		"/>
		<polyline fill="none" stroke="#646464" stroke-width="1.75" stroke-miterlimit="3.8637" points="855.081,333.445 867.831,336.445
			871.831,340.195 876.831,342.945 883.831,344.445 889.081,346.445 894.831,338.945 899.831,337.945 902.331,341.445
			910.831,345.195 917.581,352.695 923.331,352.695 929.331,349.445 937.331,349.945 940.831,352.195 940.081,358.195
			950.081,359.945 961.081,370.445 961.831,373.695 965.331,374.695 967.675,379.172 969.831,377.695 973.331,381.195
			972.331,383.695 967.831,384.695 968.331,388.695 960.581,393.945 961.831,398.445 957.331,400.695 953.081,397.195
			951.331,400.695 952.831,402.445 953.331,405.195 956.831,405.445 960.331,408.445 968.331,406.695 979.081,405.945
			980.831,402.445 981.831,398.195 985.331,398.195 987.331,395.195 994.331,393.195 995.831,397.945 998.081,399.445
			1000.582,403.445 999.582,406.945 999.332,410.695 1000.582,415.695 994.581,414.445 983.081,415.695 984.331,420.695
			992.331,419.945 999.582,423.195 998.831,431.445 1002.082,434.945 1000.582,445.945 1006.082,452.695 1002.582,457.195
			995.081,459.195 992.831,456.195 986.081,453.945 986.081,458.445 984.081,462.445 974.081,464.695 973.081,468.945
			966.581,468.195 965.331,465.945 961.581,466.945 957.831,470.445 951.331,472.695 942.081,481.195 935.831,482.445
			929.331,480.445 926.331,473.195 921.081,474.695 913.331,473.945 912.331,470.445 906.581,470.945 905.331,476.695
			900.081,481.445 899.581,485.195 902.831,487.695 903.831,495.695 897.581,501.695 897.331,507.695 894.581,521.945
			897.331,522.945 895.331,535.945 889.331,537.445 887.331,539.945 877.081,542.695 877.331,549.945 871.081,551.945
			870.581,555.445 872.386,559.136 869.713,571.109 873.963,571.609 875.081,578.695 872.831,585.695 866.081,585.445
			863.831,590.695 863.081,600.445 852.831,601.445 846.081,597.195 845.331,591.695 846.581,589.195 852.581,587.445
			841.581,583.945 839.081,579.945 836.081,579.445 830.581,569.945 820.081,571.445 818.831,575.445 		"/>
		<polyline fill="none" stroke="#646464" stroke-width="1.75" stroke-miterlimit="3.8637" points="980.831,402.445 984.581,406.695
			981.331,409.945 979.081,405.945 		"/>
		<polyline fill="none" stroke="#646464" stroke-width="1.75" stroke-miterlimit="3.8637" points="961.081,370.445 966.831,364.195
			969.581,355.945 977.331,353.945 985.831,347.195 989.581,350.695 992.831,348.945 995.081,350.195 1001.832,345.945
			1003.582,339.695 999.332,338.445 997.831,332.445 995.081,331.445 996.581,321.195 999.082,320.445 1001.582,322.195
			1009.582,318.195 1009.832,315.445 1005.582,311.945 1007.832,306.445 1007.832,302.695 1004.582,305.445 996.581,301.695
			999.082,294.445 1003.332,291.445 1008.582,292.445 1010.582,286.445 1018.332,287.195 1020.082,284.695 1027.582,285.195
			1026.082,280.945 1026.832,274.445 1032.082,272.945 1035.582,272.195 1035.582,268.695 1041.832,269.945 1047.332,269.945
			1046.935,272.272 1052.582,275.195 1057.082,275.195 1057.332,270.695 1061.832,269.695 1065.332,263.445 		"/>
		<polyline fill="none" stroke="#646464" stroke-width="1.75" stroke-miterlimit="3.8637" points="714.581,816.445 717.581,813.695
			717.081,808.445 720.831,805.695 721.331,801.195 716.081,798.945 716.331,796.445 721.331,797.445 723.831,794.695
			718.831,788.945 716.831,785.195 713.581,779.945 715.581,777.195 721.331,778.445 725.581,774.945 728.331,774.945
			732.331,770.445 735.831,770.195 744.081,764.945 748.331,766.445 749.831,763.445 756.581,765.445 760.081,765.945
			764.581,764.945 765.331,760.195 768.331,759.195 769.081,762.195 771.081,764.195 772.831,761.695 772.581,758.195
			775.331,757.445 776.581,754.445 779.331,753.695 779.581,750.695 784.831,751.445 788.331,748.695 791.831,747.195
			793.331,739.945 784.331,734.195 784.331,721.945 778.581,717.195 780.331,713.945 786.831,713.195 789.581,707.945
			789.831,702.445 786.081,700.945 787.831,698.195 784.831,691.445 786.961,690.188 783.081,682.695 777.081,684.945
			775.081,688.945 771.331,689.945 767.581,693.945 762.831,692.945 760.081,694.695 758.081,690.445 758.831,686.695
			761.581,682.695 766.581,679.445 766.081,676.195 772.081,676.695 772.081,673.195 778.081,674.945 779.081,670.695
			772.831,669.445 769.831,669.945 767.831,667.695 761.581,669.945 757.581,668.945 755.831,670.195 752.331,669.695
			748.581,664.945 		"/>
		<polyline fill="none" stroke="#646464" stroke-width="1.75" stroke-miterlimit="3.8637" points="752.831,890.945 753.581,886.945
			757.081,886.445 761.581,884.445 764.331,884.945 766.831,884.195 766.831,881.695 768.581,880.695 768.831,876.445
			762.831,872.945 763.831,868.445 765.331,865.195 767.581,865.695 769.581,867.945 772.081,865.945 779.581,866.195
			782.331,864.445 786.331,864.945 795.831,856.695 800.331,855.695 804.081,852.945 803.081,850.445 806.331,847.695
			810.831,847.695 816.331,846.945 815.581,839.945 820.331,839.695 824.331,837.195 832.081,850.445 836.581,858.445
			842.581,865.695 845.581,870.195 848.581,867.695 843.331,861.195 848.081,855.945 846.331,852.695 845.831,847.945
			848.331,846.445 851.081,841.945 848.831,840.695 848.331,837.195 851.331,835.945 849.831,833.945 846.581,833.695
			851.081,827.195 849.831,823.195 853.581,813.695 855.831,812.195 855.831,809.445 846.581,806.695 844.831,802.445
			841.581,802.445 841.831,799.445 837.831,798.945 823.081,785.445 818.081,785.695 814.081,788.195 808.331,788.195
			804.331,782.945 807.581,775.695 807.081,770.695 803.581,769.195 804.081,766.695 809.331,768.445 811.331,765.695
			807.081,763.195 808.831,759.445 803.581,750.445 800.581,750.195 797.831,747.695 799.581,744.195 793.331,739.945 		"/>
		<polyline fill="none" stroke="#646464" stroke-width="1.75" stroke-miterlimit="3.8637" points="788.907,1009.487
			790.831,1002.445 784.081,1001.195 785.831,996.195 789.831,994.695 791.581,986.945 800.081,981.195 806.331,973.945
			820.081,966.445 822.581,967.945 824.081,964.195 824.581,957.195 826.581,956.945 827.331,953.945 829.081,951.945
			828.331,948.195 829.831,944.945 837.831,940.195 842.831,934.945 845.581,934.195 847.331,931.695 846.331,928.695
			848.081,925.695 852.581,927.945 858.581,922.695 857.081,919.945 858.081,916.945 863.581,911.695 863.331,907.445
			870.581,906.445 879.331,913.195 886.331,912.695 890.331,904.945 897.081,903.945 903.331,899.195 908.331,899.195
			906.081,895.445 908.581,894.695 911.331,898.945 913.831,896.445 910.831,891.945 906.331,891.445 902.331,887.945
			901.581,884.945 898.331,884.945 894.831,883.195 893.581,879.695 885.331,872.945 882.331,873.445 880.331,871.445
			881.331,868.695 879.331,865.445 876.831,862.445 872.581,863.945 863.331,863.695 863.081,869.695 860.831,870.445
			856.081,874.695 848.581,867.695 		"/>
		<polyline fill="none" stroke="#646464" stroke-width="1.75" stroke-miterlimit="3.8637" points="913.831,896.445 920.831,898.445
			925.331,895.445 932.081,901.445 942.581,896.945 943.831,894.195 941.831,891.695 940.831,883.695 945.331,883.195
			948.331,880.695 958.081,888.695 969.081,898.945 968.331,909.445 973.831,910.445 973.581,917.695 972.831,921.445
			970.331,925.945 979.581,929.945 979.081,935.695 979.081,941.945 982.831,942.195 984.581,950.445 980.831,960.195
			981.331,968.445 977.581,972.945 974.081,973.695 974.081,976.945 972.831,980.195 976.081,979.695 978.831,981.695
			978.581,984.695 981.331,992.695 984.081,994.695 984.081,997.695 980.831,999.445 984.081,1001.195 984.073,1006.906
			984.364,1007.084 983.081,1011.695 980.081,1011.695 977.581,1014.695 978.581,1017.945 974.831,1021.945 972.331,1022.445
			971.831,1018.445 964.581,1020.695 961.831,1023.195 958.331,1023.695 953.331,1019.945 951.081,1020.195 943.831,1023.695
			937.081,1021.945 930.331,1020.695 928.081,1022.195 929.331,1024.195 926.081,1027.195 921.831,1027.945 919.081,1025.945
			914.331,1027.695 909.831,1023.695 905.831,1023.695 903.831,1025.195 898.331,1024.945 896.581,1023.445 890.581,1030.445
			887.081,1027.695 884.857,1024.307 880.78,1025.321 877.947,1024.617 871.581,1022.695 868.331,1023.195 866.081,1027.945
			852.331,1040.195 		"/>
		<polyline fill="none" stroke="#646464" stroke-width="1.75" stroke-miterlimit="3.8637" points="1122.832,1007.945
			1116.832,1008.695 1114.832,1006.695 1111.832,999.445 1109.582,997.945 1107.332,1000.945 1104.082,998.695 1104.082,994.945
			1100.582,994.195 1098.082,996.445 1091.332,994.945 1087.832,996.445 1082.082,997.195 1080.832,1000.695 1077.832,1001.695
			1075.082,995.695 1073.582,988.695 1068.332,986.945 1070.582,983.695 1069.332,979.695 1072.082,977.695 1072.082,968.695
			1070.582,965.695 1072.332,959.945 1066.082,957.945 1058.582,956.445 1051.582,953.445 1045.082,949.695 1040.582,949.445
			1038.582,952.695 1036.582,956.945 1032.332,956.945 1027.582,956.945 1023.832,959.945 1020.832,957.695 1020.332,955.195
			1017.082,953.695 1014.082,953.195 1013.332,947.195 1009.582,945.695 1011.332,938.445 1001.332,930.195 997.831,933.445
			998.831,936.445 996.081,937.945 993.581,932.945 990.831,933.445 992.581,937.945 988.331,937.945 985.581,941.695
			982.831,942.195 		"/>
		<polyline fill="none" stroke="#646464" stroke-width="1.75" stroke-miterlimit="3.8637" points="958.081,888.695 962.081,883.945
			959.331,881.195 959.581,876.695 963.081,873.945 970.331,875.695 985.331,876.445 990.331,877.195 993.831,872.195
			991.331,869.445 991.081,863.195 992.331,861.195 990.581,857.945 993.081,854.945 1000.332,856.945 1005.832,853.695
			1010.832,851.445 1016.082,846.195 1021.582,845.695 1025.582,847.195 1025.082,852.445 1029.582,851.945 1036.582,850.445
			1043.082,844.945 1048.582,845.195 1050.082,840.695 1054.332,836.695 1058.582,834.695 1062.582,836.195 1064.582,838.195
			1065.582,842.445 1069.582,847.195 1073.332,848.945 1070.582,850.695 1067.832,857.195 1068.832,860.445 1072.582,862.445
			1074.332,866.195 1083.332,869.945 1083.332,864.445 1087.832,859.445 1092.082,858.195 		"/>
		<polyline fill="none" stroke="#646464" stroke-width="1.75" stroke-miterlimit="3.8637" points="1021.582,845.695
			1017.332,839.695 1019.332,836.945 1024.582,837.695 1026.582,837.695 1028.832,839.445 1032.832,837.195 1033.832,831.695
			1027.332,814.445 1024.082,815.195 1023.332,811.945 1019.332,813.695 1018.082,811.695 1014.082,813.195 1013.082,810.445
			1009.332,810.945 1008.832,806.945 1005.832,803.695 1007.332,798.195 1005.332,795.945 1005.332,793.445 1004.082,789.695
			1003.582,785.945 		"/>
		<polyline fill="none" stroke="#646464" stroke-width="1.75" stroke-miterlimit="3.8637" points="1064.582,838.195
			1068.082,837.945 1070.332,835.695 1071.082,831.945 1066.832,831.695 1061.332,817.945 1060.582,811.445 1057.582,810.195
			1055.832,803.445 1058.832,798.695 1068.582,786.445 1072.832,785.445 1078.082,777.945 1074.582,774.695 1073.332,768.945
			1068.332,770.445 1059.082,769.695 1056.832,762.445 1050.332,762.195 1049.082,766.695 1046.332,766.945 1045.082,770.445
			1042.332,770.945 1038.832,777.445 1036.332,777.445 1034.082,782.195 1027.832,782.445 1028.082,778.445 1026.332,776.695
			1023.082,777.195 1022.082,779.195 1018.082,782.945 1011.082,781.695 		"/>
		<polyline fill="none" stroke="#646464" stroke-width="1.75" stroke-miterlimit="3.8637" points="1056.832,762.445
			1058.082,759.445 1057.082,753.945 1062.082,746.445 1057.832,746.945 1055.332,740.445 1059.582,737.695 1058.832,734.445
			1054.082,734.945 1055.082,727.695 1052.832,721.945 1053.332,716.195 1047.582,707.695 1053.332,705.195 1050.082,696.195
			1042.082,698.695 1037.832,694.195 1037.332,691.195 1040.332,690.195 1034.582,676.445 1031.832,676.445 1029.832,671.695
			1025.582,672.195 1023.082,668.445 1019.082,667.195 1021.332,663.945 1016.832,662.195 1014.332,666.195 1014.832,667.945
			1008.582,671.945 1008.832,677.445 1005.832,678.945 998.831,674.195 992.581,675.695 992.331,684.195 985.831,688.945
			981.581,686.445 975.581,688.945 975.331,693.695 978.581,694.945 981.081,701.695 980.831,704.695 976.081,703.195
			974.081,705.695 977.581,707.445 977.581,712.445 974.081,714.195 975.081,718.195 972.081,719.445 970.081,715.945
			966.081,715.695 965.331,711.195 962.081,712.695 960.331,715.695 961.581,719.195 961.831,727.445 958.831,731.695
			958.081,728.695 955.831,729.445 955.081,732.445 949.081,732.445 948.831,737.945 		"/>
		<polyline fill="none" stroke="#646464" stroke-width="1.75" stroke-miterlimit="3.8637" points="1053.332,716.195
			1059.332,718.445 1062.582,716.195 1069.832,718.195 1071.832,714.445 1067.832,711.695 1067.832,708.195 1072.082,707.195
			1075.582,707.445 1076.082,703.445 1082.082,703.445 1084.832,708.695 1082.582,711.945 1083.082,715.195 1086.332,716.195
			1088.082,710.945 1093.332,706.695 1100.332,706.695 1102.832,712.195 1107.582,712.195 1109.832,716.945 1107.582,719.695
			1109.332,726.695 1114.832,728.695 1108.832,736.695 1106.082,737.945 1104.832,747.195 1101.832,748.445 1101.082,751.445
			1103.332,756.445 1101.332,761.695 1096.082,762.445 1095.582,769.695 1088.832,768.695 1083.332,775.445 1078.082,777.945 		"/>
		<polyline fill="none" stroke="#646464" stroke-width="1.75" stroke-miterlimit="3.8637" points="1156.832,837.195
			1154.582,823.695 1156.332,818.945 1159.832,818.945 1162.832,813.695 1167.332,812.195 1165.082,810.195 1165.332,806.945
			1169.082,806.695 1171.082,803.945 1174.582,803.695 1176.582,794.945 1179.832,792.195 1179.832,784.445 1178.582,779.695
			1174.082,779.195 1172.332,780.945 1167.832,780.695 1160.832,773.695 1160.582,768.695 1151.332,766.445 1148.082,759.445
			1144.582,758.945 1142.582,754.945 1134.582,744.195 1137.332,741.195 1136.082,736.695 1136.082,731.195 1131.582,727.195
			1121.582,730.195 1114.832,728.695 		"/>
		<polyline fill="none" stroke="#646464" stroke-width="1.75" stroke-miterlimit="3.8637" points="872.831,585.695 880.331,587.695
			880.331,591.695 883.081,592.445 885.831,594.695 886.831,599.195 889.831,599.195 894.331,600.695 892.081,603.445
			894.831,603.945 899.331,599.695 906.331,600.945 905.831,606.445 910.081,604.195 912.581,604.195 924.831,607.445
			926.081,605.695 930.081,606.945 930.831,611.445 935.831,611.695 936.581,614.445 933.581,616.445 933.331,619.945
			929.331,622.695 936.331,625.945 936.081,629.695 947.581,627.695 947.581,631.195 959.081,629.695 960.081,634.195
			963.831,635.695 964.831,638.195 967.331,641.445 969.081,639.695 972.831,642.445 975.831,644.945 980.331,642.445
			984.831,642.195 987.081,638.195 998.581,643.945 1006.582,644.945 1009.332,647.195 1013.082,640.945 1017.332,642.445
			1016.582,647.695 1014.082,651.445 1022.832,661.695 1021.332,663.945 		"/>
		<polyline fill="none" stroke="#646464" stroke-width="1.75" stroke-miterlimit="3.8637" points="1102.082,709.945
			1106.582,707.945 1107.332,704.195 1104.832,702.195 1106.832,698.195 1103.582,695.695 1104.832,693.195 1110.582,691.695
			1113.582,692.195 1115.332,694.945 1126.582,694.195 1130.582,697.945 1132.832,697.945 1138.832,704.695 1149.082,711.195
			1154.332,711.945 1156.082,708.445 1161.582,709.445 1159.332,713.945 1165.082,716.945 1167.582,718.945 1172.082,717.445
			1172.582,714.445 1176.082,713.945 1179.582,708.945 1170.832,700.695 1176.082,698.445 1177.332,696.195 1174.582,693.445
			1176.332,688.195 1182.082,686.695 1183.332,680.445 1178.332,680.945 1176.582,679.195 1178.332,675.695 1179.832,670.445
			1176.582,667.695 1179.082,661.195 1187.582,658.195 1191.082,659.195 		"/>
		<polyline fill="none" stroke="#646464" stroke-width="1.75" stroke-miterlimit="3.8637" points="1121.082,694.195
			1117.332,685.445 1115.832,676.445 1115.082,666.945 1119.582,662.695 1121.582,658.945 1127.582,659.695 1130.832,663.945
			1136.832,666.445 1140.082,665.445 1141.582,653.445 1149.332,645.195 1155.332,649.445 1161.082,647.695 1164.332,651.945
			1177.082,655.945 1179.082,661.195 		"/>
		<polyline fill="none" stroke="#646464" stroke-width="1.75" stroke-miterlimit="3.8637" points="1142.906,515.987
			1138.332,516.445 1135.832,520.945 1125.582,521.945 1124.082,525.445 1116.082,528.195 1108.332,525.195 1108.082,523.695
			1099.832,516.945 1096.832,515.945 1093.582,506.445 1088.082,500.945 1083.332,500.195 1081.832,501.695 1078.582,500.945
			1061.332,510.695 1057.332,507.945 1053.332,514.695 1051.082,515.445 1051.832,518.445 1045.582,524.445 1045.332,530.945
			1046.832,533.195 1041.582,542.945 1036.832,545.195 1036.332,548.445 1039.082,552.195 1039.082,556.195 1040.582,561.445
			1043.332,563.195 1044.332,567.945 1047.332,572.945 1047.832,576.695 1042.582,584.195 1042.082,588.445 1051.082,596.945
			1047.332,602.445 1046.332,606.945 1042.082,609.945 1043.832,613.445 1049.832,612.945 1049.332,615.945 1046.582,616.445
			1046.332,618.945 1042.832,619.195 1041.082,622.445 1036.582,617.445 1033.332,618.945 1032.832,622.945 1029.582,623.195
			1025.082,626.945 1022.582,629.695 1023.832,631.695 1020.832,633.695 1017.832,630.695 1015.082,631.945 1016.582,635.195
			1010.582,633.695 1009.082,637.195 1011.832,637.695 1013.082,640.945 		"/>
		<polyline fill="none" stroke="#646464" stroke-width="1.75" stroke-miterlimit="3.8637" points="1057.332,507.945
			1050.832,511.195 1048.332,507.695 1042.082,506.195 1038.332,496.945 1029.082,495.945 1026.082,497.445 1024.582,495.695
			1026.082,488.195 1023.332,485.945 1024.082,482.445 1022.082,481.445 1019.582,483.695 1016.832,480.695 1013.832,467.195
			1009.832,462.195 1009.082,458.445 1006.082,452.695 		"/>
		<polyline fill="none" stroke="#646464" stroke-width="1.75" stroke-miterlimit="3.8637" points="1167.082,493.445
			1163.082,487.695 1156.582,486.195 1161.582,481.945 1161.082,478.195 1155.832,473.195 1166.332,457.945 1170.332,458.945
			1168.832,454.445 1169.832,448.195 1173.082,446.945 1173.332,444.695 1167.582,444.695 1165.082,439.195 1165.082,436.945
			1170.082,435.195 1171.082,431.945 1175.832,431.695 1178.332,429.445 1178.082,421.695 1172.582,420.445 1172.582,412.945
			1170.082,410.195 1164.832,409.195 1164.832,402.445 1163.082,396.195 1154.082,389.195 1145.332,387.445 1144.332,383.445
			1146.832,380.945 1141.332,380.695 1141.082,377.445 1131.332,366.945 1126.832,367.695 1126.082,364.945 1123.082,364.195
			1110.082,361.695 1107.832,356.195 1115.332,353.945 1116.082,350.695 1110.082,348.195 1102.082,346.945 1099.582,348.945
			1100.582,351.695 1095.332,355.695 1092.082,352.195 1090.582,354.695 1084.332,354.445 1080.082,344.445 1075.832,342.695
			1073.082,348.445 1066.082,349.695 1063.582,353.695 1059.082,355.695 1059.332,360.195 1053.332,363.695 1047.332,365.195
			1044.582,369.195 1047.082,370.445 1044.582,375.195 1046.332,377.445 1045.332,381.195 1037.832,380.695 1028.582,381.195
			1024.582,389.945 1020.332,391.195 1014.082,386.945 1010.582,389.945 1003.582,391.445 1003.082,394.695 999.332,394.945
			998.081,399.445 		"/>
		<path fill="none" stroke="#646464" stroke-width="1.75" stroke-miterlimit="3.8637" d="M535.743,332.724
			c0,0-2.646-5.94-2.939-7.117s-2.062-6.18-0.294-8.883c1.766-2.703,2.06-8.24,2.06-9.472c0-1.232,0.883-14.823,0.883-15.707
			c0-0.883,0-5.592,1.18-7.706c1.177-2.114,2.06-5.993,1.177-10.407c-0.883-4.415-0.883-22.234-1.177-23.706
			c-0.295-1.472-2.062-13.646-1.769-18.354c0.042-0.67,0.104-1.384,0.181-2.124"/>
		<path fill="none" stroke="#646464" stroke-width="1.75" stroke-miterlimit="3.8637" d="M649.622,421.947l0.032,4.723l3.151,3.967
			l-1.829,6.679l-3.967-0.883l-0.441,8l6.237,15.561v6.171l7.053,11.593l2.271-3.085l3.967,3.967l3.592-4.915l3.086-11.967
			l4.914-0.439l2.646,3.086l4.475-1.765l5.29,2.204l1.763,5.354l3.592-0.882l1.767,3.525l2.204-1.764l3.148,0.438l1.322,2.646
			l3.086-1.763l6.677,3.592l3.429-1.421c0.285,1.376,0.456,2.39,0.715,3.041c0.551,1.396,1.25,1.596,4.79,2.561
			c2.091,2.312,1.712,2.625,4.278,2.958l0.114,0.257l-1.208,2.692l-0.312,0.25c-0.227-0.201-3.77-0.312-3.77-0.312
			c-1.625,0.839-2.31,2.187-2.31,2.187c-0.534,1.046-0.691,1.417-0.299,2.55c0.758,2.132,1.072,1.979,3.312,2.377
			c0.799,0.146,1.294-0.117,1.969-0.502l0.239-0.138c1.038,1.897,1.867,1.558,4.175,1.968l0.11,0.195l-0.447,0.636
			c-4.344,1.714-4.685,1.062-3.645,5.428l-1.899,2.997l-0.204,0.492l-0.688,3.208l0.528,0.139l8.441,2.204l2.27-3.085l4.407,0.439
			l-0.438,3.086l1.763,3.086h5.796l1.322-3.968l5.354-1.322l4.852,2.646l-3.526,2.646l2.204,4.474l0.881,8h3.592v3.968l4.852-2.203
			l1.829-2.204l1.854-6.409c-0.513-0.116-1.128-0.688-2.375-1.707c-1.907,0.46-5.273-0.516-3.491-2.893
			c1.438-1.951,2.463-0.979,5.146-0.581c-3.756-0.664-3.69,0.021-4.115-3.454c-2.489,0.745-2.563,1.083-3.678-1.268
			c-0.58-1.222,1.872-2.894,2.823-3.818l2.068-0.786l3.967-2.204l2.646,3.086l6.677-4.85l-2.204-8.439l4.915-6.237v-3.524
			l4.408-3.594l-0.882-3.967l0.882-4.475l5.354-4.914l7.117-6.611l-2.71-3.149v-7.118l2.71-2.646v-4.914l-2.269-1.763l1.322-7.119
			l-7.056-4.85l-4.03,1.765h-5.354l-7.053,8l-4.477-2.204h-4.912l2.71-8.946l-2.71-3.085l-2.203,3.085l-3.087-3.967l-2.271,1.764
			l-3.085-6.235l-13.354-1.765l-7.055-5.796l-5.796,1.829l-4.915-6.677l0.441-3.592l-1.322-2.646l-2.646-0.882l-3.148-9.763
			l3.592-3.593l2.646-6.677l-2.646-3.968l0.881-4.914l4.408-2.645l-0.44-5.355l-4.586-0.895l-0.25-2.25l2-1.25l1.25,1.75l3.5-1
			l-2-6.25l-3.75,0.75l0.5,2.75l-5.25,2l-2.25-1l-2.5,2.75l-3-0.75l-0.25,3.25l-5.75,5.5l-12.5-2"/>
		<path fill="none" stroke="#646464" stroke-width="1.75" stroke-miterlimit="3.8637" d="M489.013,645.159
			c-0.268-0.134-0.545-0.355-0.833-0.707c-1.771-2.177-1.541-3.148-1.521-4.883c0.021-1.542-0.238-3.688-0.5-7.822l0.021-0.292
			c0.505-2.544,0.073-2.53,2.087-3.594c0.932-2.312,0.77-2.255,3.247-2.039c0.675,0.06,1.533,1.233,1.771,1.499h4.429l0.121-7.125
			l-2-4.5l1-3.5l-3-2.5l-3,2.5l-3-6l-2-10l-2-11l1-8.5l2-3.5l-1-7.5l4-3l3,1.5l14-10.5l8-5.5l9,1l3.5-4.5l3.5-0.5v-2.969
			c-0.406-0.188-0.623-0.438-1.812-1.271c-0.116-0.081-0.46-0.663-0.476-0.804l-0.657-5.894c-1.621-0.375-1.502-0.264-2.406-1.639
			c-0.432-0.655,0.101-1.381,0.465-1.865c-0.343-1.702-0.415-1.393,0.215-2.928l-1.221-1.784l-0.151-0.324
			c-1.396-4.804-1.608-3.17-0.071-7.315c1.418-3.849,0.558-2.878,4.183-4.767l1.19-4.914l-0.011-0.404l-6.75-0.125l-2.5-2.5l-3.5,1
			h-6l-0.5-4.5l2.5-1l-0.5-5.5l-4.5-2l-8,0.5l-7-12.5l-3,3l-13.5-0.5l-2.675,2.636"/>
		<polyline fill="none" stroke="#646464" stroke-width="1.75" stroke-miterlimit="3.8637" points="822.291,281.695 827.055,278.837
			828.061,275.026 834.35,269.309 837.618,270.738 836.614,264.783 839.633,260.734 844.41,259.781 845.416,253.588
			852.462,253.826 856.486,250.969 861.265,250.969 863.278,247.633 866.297,247.633 870.069,241.678 874.849,240.964
			879.629,241.44 881.389,239.772 881.137,234.294 878.368,231.674 878.117,225.004 868.56,219.049 870.069,215.953
			872.585,216.429 877.228,213.452 		"/>
		<polyline fill="none" stroke="#646464" stroke-width="1.75" stroke-miterlimit="3.8637" points="708.335,174.695 712.246,176.201
			711.879,185.618 713.4,188.032 715.158,191.597 720.271,197.783 722.305,201.01 726.118,196.542 734.766,197.783 738.072,192.818
			743.156,193.562 743.921,196.293 739.598,198.279 740.106,200.514 743.921,201.507 746.21,204.982 737.055,212.679
			734.215,214.515 730.949,214.665 732.731,220.871 732.223,224.595 733.747,229.064 742.141,230.802 745.953,227.823
			751.804,233.781 757.906,230.305 762.485,235.767 761.468,238.498 764.01,242.222 761.214,249.173 761.976,252.649
			769.605,253.146 771.132,255.38 766.808,261.834 775.452,268.786 781.557,272.51 790.202,280.454 796.815,278.22 797.831,273.751
			801.901,272.51 806.733,263.821 809.276,263.324 816.142,268.289 823.771,267.793 825.041,275.737 822.5,275.985 819.7,278.964
			822.243,281.695 		"/>
		<path fill="none" stroke="#646464" stroke-width="1.75" stroke-miterlimit="3.8637" d="M644.831,264.695l0.75-3l3.75,1.25
			l10-10.75l-6.25-5l-1-4.75l-5-1l11-7.75l3,0.5l2.25-7.5l-4-1l-0.75-7.75l3.5-1.75l-1-3.75l-9.75-1l-1.5-2l-6-1.25l0.75-7l6.5-4.25
			l1.5,3.25l7.75,1.5l2.5-2.5l3.75-0.5l-2.75-3.75l1-4.5h8l6.5-1l3.75-2.75l1.5-4l5.25-0.5l0.75,3.75l8.25,4l2.75-2l1.25-7l5.5-6.25
			l3.5-6l4.773-1.285l1.148,0.264l0.702-1.296l1.283-0.843c0.555,0.201,3.222,1.773,3.854,0.249c0.764-1.835,0.604-1.507-0.13-3.567
			l0.125-0.303l2.004-0.164c1.036,2.438,1.565,1.725,4.452,1.533c3.486-0.23,3.604-2.763,4.255-5.319
			c1.938,1.217,1.455,0.795,4.504,0.955c0.279,0.015,2.121,0.322,2.695-0.193c2.072-1.864,1.09-2.153-0.247-5.097l0.918-0.229
			c1.306,0.347,4.081,1.538,5.123-0.396c0.979-1.822,1.296-1.742,0.558-3.479l-0.583-1.34l-0.229-0.34l-1.014-1.036l0.333-1.03
			l1.313-4.042c0.036-0.113-0.02-0.765-0.071-0.871c-1.318-2.557-1.023-2.048-4.158-2.361c-0.161-0.154-1.518-1.811-2.354-1.771
			c-2.927,0.139-3.063,1.36-3.752,3.877l-6.479-2.292l-1.402-1.89c0.928-1.039,3.317-3.228,2.652-5.067
			c-0.198-0.548-0.357-0.968-0.536-1.282l5.256-2.637l12.25-11.5l-6.25-7l-3-9.5l-10.75,4.5l-5.75-4.75l-4.5-1l-1.25-5.75
			l-3.75-3.25l-0.25,2.75l-4.75-1.5l-3-7.25l-2.5,3.25l-1.75-2.75l-0.5-4.25l-2.25-0.5l-3.25,4.5l-3-1.5l-8.5-2.5l-2.5-6.25"/>
		<polyline fill="none" stroke="#646464" stroke-width="1.75" stroke-miterlimit="3.8637" points="841.831,799.445 849.831,800.195
			851.831,802.195 855.331,802.945 860.081,799.445 860.831,794.695 866.081,791.195 867.831,786.195 855.331,777.445
			857.831,773.945 868.581,773.445 871.831,782.445 874.331,782.445 876.081,784.445 876.83,783.637 880.849,782.195
			879.819,781.269 880.643,777.079 883.081,777.195 888.831,777.195 888.331,770.445 890.581,769.445 891.581,764.195
			890.331,760.695 877.581,758.695 884.831,749.695 890.881,748.834 895.331,745.195 904.331,743.445 906.581,746.195
			911.331,746.945 917.331,744.945 917.331,742.195 920.081,740.945 919.581,737.445 925.331,738.195 926.581,736.195
			931.831,735.695 933.831,732.695 938.331,733.695 941.081,732.195 941.831,734.695 939.331,737.445 944.331,738.945
			948.831,737.945 948.331,745.195 939.831,748.945 939.198,758.459 952.331,759.695 956.581,763.195 960.747,763.538
			961.081,760.445 977.581,756.695 980.831,760.945 985.081,760.945 989.581,757.695 996.081,760.195 996.581,763.195
			1006.832,766.695 1008.082,770.945 1012.082,775.695 1009.832,779.945 1011.082,781.695 1003.582,785.945 1002.832,781.445
			1000.082,780.695 995.331,783.195 991.581,791.945 989.581,798.945 993.831,800.695 995.331,806.695 992.081,817.445
			995.831,825.445 994.581,832.445 995.831,835.695 992.581,838.695 993.331,845.945 993.581,851.445 993.081,854.945 		"/>
		<path fill="none" stroke="#646464" stroke-width="1.75" stroke-miterlimit="3.8637" d="M1257.243,363.907l-1.538-3.581
			l-0.162-0.292c-0.047-0.062-0.069-0.148-0.105-0.227c-1.64-3.579-9.062-5.587-12.429-3.451c-1.253,0.692-1.501,1.201-2.485,2.035
			l-0.584,0.476c-1.425,1.15-2.4,2.582-3.468,4.059c-2.331,3.23-1.854,1.896-4.058,3.854c-1.31,0.26-6.017-2.775-6.593-3.641
			l-0.238-0.386c-2.298-3.754-7.896-6.35-10.813-10.468c-3.421-4.828-4.818-4.922-9.886-7.843c-2.068-1.192-6.135-5.188-8.718-6.186
			c-0.623-0.24-4.896-4.817-5.542-5.629c-3.804-4.773-9.896-4.747-11.892-6.982l-0.369-0.42c-0.777-0.865-1.728-1.446-2.522-2.354
			c-1.193-1.357-2.156-2.356-3.082-3.106l-2.177,1.68l-1,2.25l1.75,2.25l-0.25,7.5l2,4.75v2l-2.25,2.5l-0.25,3.75l6.5-1.75
			l-0.25,5.25l3.75,1.5l-0.25,4.5l1.5,4.5l-0.75,5.75l-7-2l-6.5,3.25l-6,0.75l-7-2.25l-5.25,4.25l-3.25,5l-5,2.25"/>
			<line fill="none" stroke="#646464" stroke-width="1.75" stroke-miterlimit="3.8637" x1="844.503" y1="1052.2" x2="849.862" y2="1048.075"/>
	</g>
</g>
</svg>
